<svg width="110" height="94" viewBox="0 0 110 94" fill="none" xmlns="http://www.w3.org/2000/svg">
<path d="M74.0593 3.91143C74.0593 3.91143 59.0847 22.8793 35.1253 11.5651C11.1659 0.250921 -12.7935 30.8658 7.83819 49.5008C28.4699 68.1359 8.28024 78.3758 22.2966 89.7966C38.2271 102.777 52.0965 76.4552 64.7418 82.4451C92.6504 95.6649 113.326 90.4315 108.667 75.1241C100.489 48.254 90.0323 46.5059 98.0187 32.5296C106.005 18.5533 88.3789 -10.507 74.0593 3.91143Z" fill="#DEE9FF" fill-opacity="0.7"/>
<path d="M65.9066 56.3715L64.7236 62.7229L59.0887 92.9154L48.9384 91.0202L55.4467 56.1425L55.7562 54.4805L65.9066 56.3715Z" fill="#699CFF" fill-opacity="0.5"/>
<path d="M90.9046 41.1823L87.4046 59.9465C87.3943 60.0015 87.3733 60.054 87.3428 60.1009C87.3123 60.1478 87.2728 60.1882 87.2266 60.2198C87.1805 60.2514 87.1285 60.2736 87.0738 60.2852C87.0191 60.2967 86.9626 60.2974 86.9076 60.2871L37.7352 51.116L43.5228 20.085L80.8624 27.0493C87.6301 28.3112 92.1252 34.6375 90.9046 41.1823Z" fill="#A2BDFF" fill-opacity="0.5"/>
<path d="M54.0254 34.8852L50.5528 53.5038L24.742 48.6899L28.2145 30.0713C29.4931 23.2162 36.3077 18.7365 43.4351 20.0658C50.5624 21.3951 55.304 28.03 54.0254 34.8852Z" fill="#699CFF" fill-opacity="0.5"/>
<path d="M66.0415 43.5888C64.1395 43.234 62.8845 41.3855 63.2427 39.4658C63.6009 37.5461 65.4376 36.2738 67.3397 36.6287C67.946 36.7426 68.5113 37.0151 68.9782 37.4184C69.445 37.8217 69.7968 38.3414 69.9976 38.9247L94.0236 43.4059L93.3746 46.886L69.3485 42.4049C68.951 42.8767 68.4355 43.2348 67.8546 43.4427C67.2738 43.6507 66.6482 43.7011 66.0415 43.5888Z" fill="#418DF9" fill-opacity="0.5"/>
<path d="M53.1691 35.2274L49.7858 53.3675L25.471 48.8326L28.8546 30.6924C30.1003 24.0136 36.5534 19.6142 43.2676 20.8665C49.9819 22.1188 54.4148 28.5485 53.1691 35.2274Z" fill="#418DF9" fill-opacity="0.5"/>
<path d="M66.7228 41.8308C67.7004 41.8308 68.4929 41.0383 68.4929 40.0607C68.4929 39.0831 67.7004 38.2906 66.7228 38.2906C65.7452 38.2906 64.9527 39.0831 64.9527 40.0607C64.9527 41.0383 65.7452 41.8308 66.7228 41.8308Z" fill="white"/>
<path d="M94.3014 43.3935L92.179 54.7726C92.1699 54.8216 92.1417 54.865 92.1005 54.8932C92.0594 54.9213 92.0088 54.932 91.9598 54.9229L86.3808 53.8824C86.3711 53.8806 86.3626 53.875 86.357 53.8669C86.3515 53.8588 86.3493 53.8488 86.3511 53.8391L88.5012 42.3117C88.503 42.302 88.5085 42.2935 88.5166 42.2879C88.5248 42.2824 88.5348 42.2802 88.5444 42.282L94.2717 43.3503C94.2814 43.3521 94.2899 43.3576 94.2955 43.3657C94.3011 43.3739 94.3032 43.3839 94.3014 43.3935Z" fill="#699CFF" fill-opacity="0.5"/>
<path d="M33.5174 42.323C33.7523 44.0512 35.6487 46.1053 35.6487 46.1053C32.759 46.3102 31.194 44.6759 30.5206 43.6829C29.6881 43.9235 28.8324 44.0754 27.9679 44.136C22.0353 44.5564 16.9282 40.6833 16.5594 35.4806C16.1906 30.2779 20.7003 25.723 26.6329 25.3026C32.5655 24.8822 37.6722 28.7551 38.0409 33.9579C38.2808 37.342 36.4547 40.4526 33.5174 42.323Z" fill="white"/>
<path d="M50.5778 53.5152C50.3092 54.1952 45.3963 74.4529 29.498 71.4877C12.0646 68.5362 24.6746 48.684 24.6746 48.684L50.5778 53.5152Z" fill="#A2BDFF" fill-opacity="0.5"/>
<path d="M27.3 36.504C28.1147 36.504 28.775 35.8436 28.775 35.029C28.775 34.2144 28.1147 33.554 27.3 33.554C26.4854 33.554 25.825 34.2144 25.825 35.029C25.825 35.8436 26.4854 36.504 27.3 36.504Z" fill="#699CFF" fill-opacity="0.5"/>
<path d="M20.6965 35.8608C21.5161 35.8608 22.1805 35.1964 22.1805 34.3769C22.1805 33.5573 21.5161 32.8929 20.6965 32.8929C19.877 32.8929 19.2126 33.5573 19.2126 34.3769C19.2126 35.1964 19.877 35.8608 20.6965 35.8608Z" fill="#699CFF" fill-opacity="0.5"/>
<path d="M33.8403 37.1327C34.6599 37.1327 35.3242 36.4683 35.3242 35.6487C35.3242 34.8292 34.6599 34.1648 33.8403 34.1648C33.0208 34.1648 32.3564 34.8292 32.3564 35.6487C32.3564 36.4683 33.0208 37.1327 33.8403 37.1327Z" fill="#699CFF" fill-opacity="0.5"/>
<path d="M65.9066 56.3715L64.7236 62.7229L55.4467 56.1425L55.7562 54.4805L65.9066 56.3715Z" fill="#418DF9" fill-opacity="0.5"/>
</svg>
