<?xml version="1.0" encoding="utf-8"?>
<!-- Generator: Adobe Illustrator 27.9.3, SVG Export Plug-In . SVG Version: 9.03 Build 53313)  -->
<svg version="1.1" id="_圖層_1" xmlns="http://www.w3.org/2000/svg" xmlns:xlink="http://www.w3.org/1999/xlink" x="0px" y="0px"
	 viewBox="0 0 215.2 70.8" style="enable-background:new 0 0 215.2 70.8;" xml:space="preserve">
<style type="text/css">
	.st0{fill:#FC6300;}
</style>
<g>
	<path class="st0" d="M40.9,12.6v15.7c3.9,0,7.1,3.2,7.1,7.1s-3.2,7.1-7.1,7.1v15.7c12.6,0,22.8-10.2,22.8-22.8S53.5,12.6,40.9,12.6
		"/>
	<path class="st0" d="M77,45.3c-0.4-1.1-1.1-2-1.2-3.2c-0.1-1.1,0.3-2.2,0.4-3.2c0.1-1.2,0.2-2.3,0.2-3.5C76.4,15.8,60.6,0,41,0
		c-7.8,0-15,2.5-20.9,6.8c-1.2,0.9-1.4,2.7-0.3,3.8c0.9,0.9,2.3,1,3.3,0.2C28.1,7.1,34.3,5,41,5c16.8,0,30.3,13.6,30.3,30.3
		c0,1.1-0.1,2.2-0.2,3.4c-0.1,1.1-0.1,1.9-1,2.6c-0.6,0.5-1.4,0.8-2.1,1.4c-0.9,0.7-1.9,1.6-2.2,2.7c-0.7,2.5-1,5.6-0.6,8.2
		c0.2,1.5,0.7,2.9,1.4,3.8c0.2,0.3,0.5,0.5,0.7,0.7c0.1,0.1,0.3,0.2,0.5,0.3c0.2,0.1,0.3,0.2,0.5,0.2c3.6,1,7.7-5,9.2-9.9
		C77.8,47.7,77.4,46.4,77,45.3"/>
	<path class="st0" d="M58.8,59.9c-5,3.7-11.2,5.8-17.9,5.8c-0.2,0-0.4,0-0.6,0c-1.3,0-2.5-0.1-3.8-0.3c-1.2-0.2-2.5-0.4-3.6-0.8
		c-1.2-0.3-2.3-0.7-3.5-1.2c-1.1-0.5-2.2-1-3.3-1.6s-2.1-1.2-3-2s-1.9-1.5-2.8-2.3c-0.9-0.8-1.7-1.7-2.5-2.6S16.3,53,15.6,52
		s-1.3-2-1.8-3.1c-0.6-1.1-1-2.2-1.4-3.4s-0.8-2.3-1.1-3.5c-0.1-0.6-0.3-1.2-0.4-1.8c-0.1-0.8-0.2-1.5-0.2-2.3c0-0.6,0-1.2,0-1.8
		c0-0.4,0.1-0.8,0.2-1.2c0.1-0.3,0.2-0.5,0.5-0.7c0.5-0.3,1.1-0.4,1.6-0.6c1-0.4,1.8-1.2,2.2-2.2c0.1-0.3,0.2-0.7,0.3-1.1l2.7-13.7
		c0-0.1,0-0.3,0-0.4c0,0,0-0.1-0.1-0.2c-0.1-0.1-0.2-0.3-0.4-0.3c0,0,0,0-0.1,0c-0.3,0-0.6,0.2-0.7,0.6l-0.1,0.3L14.6,28
		c0,0.1-0.1,0.1-0.2,0.1l-1.6-0.2c-0.1,0-0.1-0.1-0.1-0.2l1-5.6l1.1-6.2c0.1-0.4-0.1-0.8-0.5-0.8c-0.3-0.1-0.7,0.2-0.7,0.6
		l-2.5,11.6c0,0.1-0.1,0.1-0.2,0.1l-1.6-0.3c-0.1,0-0.1-0.1-0.1-0.2L11,16.6l0.2-1.4c0.1-0.4-0.1-0.8-0.5-0.8
		C10.4,14.3,10,14.6,10,15l-1.2,5.7l-1.3,5.9c0,0.1-0.1,0.1-0.2,0.1l-0.6-0.1l-1-0.2c-0.1,0-0.1-0.1-0.1-0.2l2-11.7
		c0-0.2,0-0.4-0.1-0.5c-0.1-0.2-0.2-0.3-0.4-0.3c-0.3-0.1-0.7,0.2-0.7,0.6L3.7,28c-0.1,0.4-0.1,0.8-0.1,1.2c0,1.1,0.4,2.1,1.2,2.9
		c0,0,0,0,0.1,0.1c0.3,0.3,0.6,0.6,0.7,1c0,0.3,0,0.7,0,1.1s0,0.7,0,1.1c0,3,0.4,5.9,1.1,8.7C10.6,59.4,24.5,70.8,41,70.8
		c7.8,0,15-2.5,20.9-6.8c1.2-0.9,1.4-2.7,0.3-3.8C61.3,59.3,59.9,59.2,58.8,59.9"/>
	<path class="st0" d="M28.7,45.2c-0.7,0.7-0.7,1.8,0,2.5c0.3,0.3,0.8,0.5,1.3,0.5s0.9-0.2,1.2-0.5l8.9-8.9c0.2,0.1,0.5,0.1,0.8,0.1
		c2,0,3.5-1.6,3.5-3.5s-1.6-3.5-3.5-3.5c-0.3,0-0.6,0-0.9,0.1l-2.7-2.7L27,19c-0.7-0.7-1.8-0.7-2.5,0s-0.7,1.8,0,2.5l10.3,10.3
		l2.7,2.7c-0.1,0.3-0.1,0.6-0.1,0.9s0,0.6,0.1,0.9L34.8,39L28.7,45.2L28.7,45.2z"/>
	<path class="st0" d="M98.4,48.2c-1.4,0-2.1-0.7-2.1-2.1V25.6h-5.9c-1.1,0-1.7-0.6-1.7-1.7c0-1.1,0.6-1.7,1.7-1.7h15.9
		c1.1,0,1.7,0.6,1.7,1.7c0,1.1-0.6,1.7-1.7,1.7h-5.9v20.5C100.5,47.5,99.8,48.2,98.4,48.2"/>
	<path class="st0" d="M118.7,48.7c-2.5,0-4.7-0.9-6.4-2.7c-1.9-1.9-2.8-4.4-2.8-7.5s0.9-5.6,2.8-7.5c1.7-1.8,3.9-2.7,6.4-2.7
		s4.6,0.9,6.4,2.7c1.8,1.9,2.8,4.4,2.8,7.5s-0.9,5.6-2.8,7.5C123.4,47.8,121.3,48.7,118.7,48.7 M118.7,45.3c1.5,0,2.7-0.6,3.6-1.9
		c0.9-1.2,1.3-2.9,1.3-5s-0.4-3.8-1.3-5c-0.9-1.2-2.1-1.9-3.6-1.9s-2.8,0.6-3.7,1.9c-0.9,1.3-1.3,2.9-1.3,5s0.4,3.7,1.3,5
		C116,44.7,117.2,45.3,118.7,45.3"/>
	<path class="st0" d="M136.1,48.2c-0.5,0-0.9-0.1-1.2-0.4s-0.4-0.7-0.4-1.2V24.4c0-0.7,0.2-1.2,0.6-1.7c0.4-0.4,1-0.6,1.7-0.6h4.5
		c4,0,7.1,1.1,9.3,3.3s3.3,5.4,3.3,9.6s-1.1,7.5-3.3,9.7c-2.1,2.3-5.2,3.4-9.1,3.4h-5.4V48.2z M138.5,44.8h2.4
		c2.8,0,4.9-0.8,6.4-2.5c1.5-1.6,2.2-4.1,2.2-7.3c0-6.4-2.9-9.6-8.6-9.6h-2.4L138.5,44.8L138.5,44.8z"/>
	<path class="st0" d="M164.8,48.7c-1.7,0-3.1-0.5-4.1-1.6c-1.1-1-1.6-2.4-1.6-4.1c0-2.1,0.9-3.7,2.8-4.9c1.9-1.1,4.8-1.9,8.9-2.4
		c0-2.8-1.3-4.2-3.7-4.2c-1.3,0-2.7,0.4-4.2,1.2c-0.9,0.5-1.7,0.3-2.2-0.6c-0.5-0.9-0.3-1.6,0.4-2c2.2-1.2,4.5-1.9,6.7-1.9
		c4.7,0,7.1,2.8,7.1,8.2v10c0,1.1-0.6,1.7-1.7,1.7c-1.1,0-1.7-0.5-1.8-1.5l-0.1-0.7h-0.1C168.9,47.8,166.8,48.7,164.8,48.7
		 M166,45.4c1.5,0,3-0.8,4.7-2.3v-4.7c-2.7,0.3-4.7,0.8-6,1.6c-1.1,0.7-1.7,1.6-1.7,2.7C163,44.5,164,45.4,166,45.4"/>
	<path class="st0" d="M187.9,48.7c-3.9,0-5.9-2.3-5.9-6.9V32h-1.3c-1,0-1.5-0.5-1.5-1.6s0.5-1.5,1.4-1.6l1.6-0.1l0.3-3.8
		c0.1-1.1,0.7-1.6,1.8-1.6s1.7,0.6,1.7,1.7v3.7h3.4c1.1,0,1.6,0.5,1.6,1.6s-0.5,1.7-1.6,1.7H186v9.9c0,1.2,0.2,2.1,0.7,2.7
		c0.4,0.6,1.2,0.9,2.2,0.9c0.2,0,0.3,0,0.4,0c1.1-0.3,1.8,0.1,2,1.2c0.2,0.9-0.1,1.5-1,1.8C189.5,48.6,188.7,48.7,187.9,48.7"/>
	<path class="st0" d="M204.3,48.7c-2.8,0-5-0.9-6.7-2.7c-1.8-1.9-2.8-4.4-2.8-7.5s0.9-5.5,2.8-7.5c1.7-1.8,3.7-2.7,6.1-2.7
		c2.5,0,4.5,0.8,5.9,2.5c1.4,1.6,2,3.8,2,6.6c0,0.3,0,0.8-0.1,1.3s-0.4,0.8-1.1,0.8h-11.7c0.2,1.8,0.8,3.3,1.9,4.3s2.5,1.6,4.2,1.6
		c1.1,0,2.2-0.2,3.3-0.7c0.9-0.5,1.6-0.3,2.1,0.6c0.4,0.8,0.3,1.5-0.5,1.9C208,48.2,206.2,48.7,204.3,48.7 M198.7,36.7h9.3
		c0-1.7-0.4-3-1.1-3.9c-0.7-0.9-1.8-1.4-3.2-1.4c-1.3,0-2.4,0.4-3.3,1.3C199.5,33.7,198.9,35,198.7,36.7"/>
</g>
</svg>
