<svg width="301" height="240" viewBox="0 0 301 240" fill="none" xmlns="http://www.w3.org/2000/svg">
<path d="M270 120C270 186.274 216.274 240 150 240C83.7258 240 30 186.274 30 120C30 53.7258 83.7258 0 150 0C216.274 0 270 53.7258 270 120Z" fill="url(#paint0_linear_2641_157362)"/>
<g filter="url(#filter0_d_2641_157362)">
<g clip-path="url(#clip0_2641_157362)">
<path d="M210 148.945C212.485 148.945 214.5 146.931 214.5 144.445C214.5 141.96 212.485 139.945 210 139.945C207.515 139.945 205.5 141.96 205.5 144.445C205.5 146.931 207.515 148.945 210 148.945Z" fill="#FC6300"/>
<path d="M198.093 162.45C198.83 156.529 203.88 151.947 210 151.947C216.121 151.947 221.171 156.529 221.908 162.45C222.01 163.272 221.329 163.947 220.5 163.947H199.5C198.672 163.947 197.99 163.272 198.093 162.45Z" fill="#FC6300"/>
</g>
<path fill-rule="evenodd" clip-rule="evenodd" d="M208.5 96.542C209.432 96.542 210.187 95.7865 210.187 94.8545C210.187 93.9225 209.432 93.167 208.5 93.167C207.568 93.167 206.812 93.9225 206.812 94.8545C206.812 95.7865 207.568 96.542 208.5 96.542ZM204.035 101.607C204.311 99.3867 206.205 97.6685 208.5 97.6685C210.795 97.6685 212.689 99.3867 212.965 101.607C213.004 101.915 212.748 102.168 212.437 102.168H204.562C204.252 102.168 203.996 101.915 204.035 101.607Z" fill="#FC6300"/>
<path fill-rule="evenodd" clip-rule="evenodd" d="M186 112.292C186.932 112.292 187.687 111.536 187.687 110.604C187.687 109.673 186.932 108.917 186 108.917C185.068 108.917 184.312 109.673 184.312 110.604C184.312 111.536 185.068 112.292 186 112.292ZM181.535 117.357C181.811 115.137 183.705 113.418 186 113.418C188.295 113.418 190.189 115.137 190.465 117.357C190.504 117.665 190.248 117.918 189.937 117.918H182.062C181.752 117.918 181.496 117.665 181.535 117.357Z" fill="#FC6300"/>
<path d="M159 97.5H199.5" stroke="#FC6300" stroke-width="2.7" stroke-linecap="round"/>
<path d="M159 113.25H177" stroke="#FC6300" stroke-width="2.7" stroke-linecap="round"/>
<path d="M159 129H195" stroke="#FC6300" stroke-width="2.7" stroke-linecap="round"/>
<path d="M159 144.75H177" stroke="#FC6300" stroke-width="2.7" stroke-linecap="round"/>
<path fill-rule="evenodd" clip-rule="evenodd" d="M78 169.5C78 171.985 80.0147 174 82.5 174H175.65C176.396 174 177 173.396 177 172.65C177 171.904 176.396 171.3 175.65 171.3H151.35V68.7H217.5C218.494 68.7 219.3 69.5059 219.3 70.5V118.65C219.3 119.396 219.904 120 220.65 120C221.396 120 222 119.396 222 118.65V70.5C222 68.0147 219.985 66 217.5 66H82.5C80.0147 66 78 68.0147 78 70.5V169.5ZM148.65 68.7V171.3H82.5C81.5059 171.3 80.7 170.494 80.7 169.5V70.5C80.7 69.5059 81.5059 68.7 82.5 68.7H148.65Z" fill="#FC6300"/>
<path fill-rule="evenodd" clip-rule="evenodd" d="M223.392 136.336C232.245 144.083 233.142 157.539 225.396 166.393C217.65 175.246 204.193 176.143 195.34 168.397C186.487 160.65 185.59 147.194 193.336 138.341C201.082 129.487 214.539 128.59 223.392 136.336ZM228.288 167.131C236.077 157.167 234.805 142.735 225.17 134.305C215.194 125.576 200.032 126.587 191.304 136.563C182.576 146.538 183.587 161.7 193.562 170.429C203.196 178.858 217.669 178.204 226.511 169.162C226.52 169.171 226.529 169.179 226.539 169.188L237.714 178.966C238.275 179.457 239.128 179.4 239.619 178.839C240.11 178.278 240.053 177.425 239.492 176.934L228.317 167.156C228.307 167.147 228.298 167.139 228.288 167.131Z" fill="#FC6300"/>
<g clip-path="url(#clip1_2641_157362)">
<path d="M104 102.75V117.75M104 140.25V122.75" stroke="#FC6300" stroke-width="2.7" stroke-linecap="round"/>
<path d="M97.75 102.75V117.75C97.75 120.511 99.9886 122.75 102.75 122.75H105.25C108.011 122.75 110.25 120.511 110.25 117.75V102.75" stroke="#FC6300" stroke-width="2.7" stroke-linecap="round"/>
<path fill-rule="evenodd" clip-rule="evenodd" d="M121.4 102.75C121.4 102.371 121.559 102.009 121.839 101.754C122.119 101.498 122.494 101.372 122.872 101.406C125.867 101.678 128.102 103.305 129.492 104.682C131.115 106.289 131.6 108.499 131.6 110.467V110.482V110.498V110.513V110.528V110.544V110.559V110.575V110.591V110.606V110.622V110.638V110.653V110.669V110.685V110.701V110.717V110.733V110.749V110.765V110.781V110.798V110.814V110.83V110.847V110.863V110.88V110.896V110.913V110.929V110.946V110.963V110.979V110.996V111.013V111.03V111.047V111.064V111.081V111.098V111.115V111.132V111.149V111.167V111.184V111.201V111.219V111.236V111.254V111.271V111.289V111.307V111.324V111.342V111.36V111.378V111.396V111.414V111.432V111.45V111.468V111.486V111.504V111.523V111.541V111.559V111.578V111.596V111.615V111.633V111.652V111.67V111.689V111.708V111.727V111.745V111.764V111.783V111.802V111.821V111.841V111.86V111.879V111.898V111.917V111.937V111.956V111.976V111.995V112.015V112.034V112.054V112.074V112.093V112.113V112.133V112.153V112.173V112.193V112.213V112.233V112.253V112.273V112.294V112.314V112.334V112.355V112.375V112.396V112.416V112.437V112.458V112.478V112.499V112.52V112.541V112.562V112.583V112.604V112.625V112.646V112.667V112.688V112.71V112.731V112.752V112.774V112.795V112.817V112.839V112.86V112.882V112.904V112.925V112.947V112.969V112.991V113.013V113.035V113.057V113.079V113.102V113.124V113.146V113.169V113.191V113.214V113.236V113.259V113.281V113.304V113.327V113.35V113.372V113.395V113.418V113.441V113.464V113.487V113.511V113.534V113.557V113.58V113.604V113.627V113.651V113.674V113.698V113.721V113.745V113.769V113.793V113.816V113.84V113.864V113.888V113.912V113.937V113.961V113.985V114.009V114.034V114.058V114.082V114.107V114.131V114.156V114.181V114.205V114.23V114.255V114.28V114.305V114.33V114.355V114.38V114.405V114.43V114.455V114.481V114.506V114.531V114.557V114.582V114.608V114.634V114.659V114.685V114.711V114.737V114.763V114.789V114.815V114.841V114.867V114.893V114.919V114.945V114.972V114.998V115.025V115.051V115.078V115.104V115.131V115.158V115.184V115.211V115.238V115.265V115.292V115.319V115.346V115.373V115.401V115.428V115.455V115.483V115.51V115.538V115.565V115.593V115.62V115.648V115.676V115.704V115.732V115.76V115.788V115.816V115.844V115.872V115.9V115.928V115.957V115.985V116.014V116.042V116.071V116.099V116.128V116.157V116.185V116.214V116.243V116.272V116.301V116.33V116.359V116.389V116.418V116.447V116.476V116.506V116.535V116.565V116.594V116.624V116.654V116.684V116.713V116.743V116.773V116.803V116.833V116.863V116.893V116.924V116.954V116.984V117.015V117.045V117.075V117.106V117.137V117.167V117.198V117.229V117.26V117.291V117.322V117.353V117.384V117.415V117.446V117.477V117.508V117.54V117.571V117.603V117.634V117.666V117.698V117.729V117.761V117.793V117.825V117.857V117.889V117.921V117.953V117.985V118.017V118.05V118.082V118.114V118.147V118.179V118.212V118.245V118.277V118.31V118.343V118.376V118.409V118.442V118.475V118.508V118.541V118.574V118.608V118.641V118.674V118.708V118.741V118.775V118.809V118.842V118.876V118.91V118.944V118.978V119.012V119.046V119.08V119.114V119.149V119.183V119.217V119.252V119.286V119.321V119.355V119.39V119.425V119.459V119.494V119.529V119.564V119.599V119.634V119.669V119.705V119.74V119.775V119.811V119.846V119.882V119.917V119.953V119.989V120.024V120.06V120.096V120.132V120.168V120.204V120.24V120.276V120.313V120.349V120.385V120.422V120.458V120.495V120.531V120.568V120.605V120.641V120.678V120.715V120.752V120.789V120.826V120.864V120.901V120.938V120.975V121.013V121.05V121.088V121.125V121.163V121.201V121.239V121.276V121.314V121.352V121.39V121.428V121.467V121.505V121.543V121.581V121.62V121.658V121.697V121.735V121.774V121.813V121.851V121.89V121.929V121.968V122.007V122.046V122.085V122.125V122.164V122.203V122.243V122.282V122.322V122.361V122.401V122.441V122.48V122.52V122.56V122.6V122.64V122.68V122.72V122.761V122.801V122.841V122.882V122.922V122.963V123.003V123.044V123.085V123.125V123.166V123.207V123.248V123.289V123.33V123.371V123.413V123.454V123.495V123.537V123.578V123.62V123.661V123.703V123.745V123.787V123.829V123.871V123.913V123.955V123.997V124.039V124.081V124.124V124.166V124.208V124.251V124.294V124.336V124.379V124.422V124.464V124.507V124.55V124.593V124.637V124.68V124.723V124.766V124.81V124.853V124.896V124.94V124.984V125.027V125.071V125.115V125.159V125.203V125.247C131.6 127.371 129.878 129.1 127.75 129.1H127.74H127.731H127.722H127.713H127.704H127.695H127.686H127.677H127.668H127.659H127.65H127.641H127.632H127.623H127.614H127.605H127.596H127.587H127.579H127.57H127.561H127.552H127.544H127.535H127.526H127.517H127.509H127.5H127.491H127.483H127.474H127.466H127.457H127.449H127.44H127.431H127.423H127.414H127.406H127.398H127.389H127.381H127.372H127.364H127.355H127.347H127.339H127.33H127.322H127.314H127.306H127.297H127.289H127.281H127.273H127.264H127.256H127.248H127.24H127.232H127.223H127.215H127.207H127.199H127.191H127.183H127.175H127.167H127.159H127.151H127.143H127.135H127.127H127.119H127.111H127.103H127.095H127.087H127.079H127.071H127.063H127.055H127.047H127.039H127.031H127.023H127.016H127.008H127H126.992H126.984H126.976H126.969H126.961H126.953H126.945H126.938H126.93H126.922H126.914H126.906H126.899H126.891H126.883H126.876H126.868H126.86H126.852H126.845H126.837H126.829H126.822H126.814H126.806H126.799H126.791H126.784H126.776H126.768H126.761H126.753H126.745H126.738H126.73H126.723H126.715H126.707H126.7H126.692H126.685H126.677H126.669H126.662H126.654H126.647H126.639H126.632H126.624H126.616H126.609H126.601H126.594H126.586H126.579H126.571H126.564H126.556H126.549H126.541H126.533H126.526H126.518H126.511H126.503H126.496H126.488H126.481H126.473H126.466H126.458H126.451H126.443H126.435H126.428H126.42H126.413H126.405H126.398H126.39H126.383H126.375H126.367H126.36H126.352H126.345H126.337H126.33H126.322H126.314H126.307H126.299H126.292H126.284H126.276H126.269H126.261H126.254H126.246H126.238H126.231H126.223H126.216H126.208H126.2H126.193H126.185H126.177H126.17H126.162H126.154H126.147H126.139H126.131H126.123H126.116H126.108H126.1H126.093H126.085H126.077H126.069H126.062H126.054H126.046H126.038H126.03H126.023H126.015H126.007H125.999H125.991H125.983H125.976H125.968H125.96H125.952H125.944H125.936H125.928H125.92H125.912H125.904H125.896H125.888H125.88H125.872H125.864H125.856H125.848H125.84H125.832H125.824H125.816H125.808H125.8H125.792H125.784H125.776H125.767H125.759H125.751H125.743H125.735H125.726H125.718H125.71H125.702H125.693H125.685H125.677H125.669H125.66H125.652H125.643H125.635H125.627H125.618H125.61H125.601H125.593H125.585H125.576H125.568H125.559H125.55H125.542H125.533H125.525H125.516H125.508H125.499H125.49H125.482H125.473H125.464H125.455H125.447H125.438H125.429H125.42H125.411H125.403H125.394H125.385H125.376H125.367H125.358H125.349H125.34H125.331H125.322H125.313H125.304H125.295H125.286H125.277H125.268H125.259H125.249H125.24H125.231H125.222H125.212H125.203H125.194H125.184H125.175H125.166H125.156H125.147H125.137H125.128H125.118H125.109H125.099H125.09H125.08H125.071H125.061H125.051H125.042H125.032H125.022H125.012H125.003H124.993H124.983H124.973H124.963H124.953H124.943H124.934H124.924H124.914H124.903H124.893H124.883H124.873H124.863H124.853H124.843H124.832H124.822H124.812H124.802H124.791H124.781H124.771H124.76H124.75H124.739H124.729H124.718H124.708H124.697H124.686H124.676H124.665H124.654H124.644H124.633H124.622H124.611H124.6H124.589H124.578H124.568H124.557H124.546H124.535H124.523H124.512H124.501H124.49H124.479H124.468H124.456H124.445H124.434H124.422H124.411H124.399H124.388H124.377H124.365H124.353H124.342H124.33H124.319H124.307H124.295H124.283H124.272H124.26H124.248H124.236H124.224H124.212H124.2H124.188H124.176H124.164H124.152H124.14H124.127H124.115H124.103H124.1V137.75H124.1V140.25C124.1 140.996 123.495 141.6 122.75 141.6C122.004 141.6 121.4 140.996 121.4 140.25V132.75H121.4V127.75V102.75ZM124.1 104.395V126.4H124.103H124.115H124.127H124.14H124.152H124.164H124.176H124.188H124.2H124.212H124.224H124.236H124.248H124.26H124.272H124.283H124.295H124.307H124.319H124.33H124.342H124.353H124.365H124.377H124.388H124.399H124.411H124.422H124.434H124.445H124.456H124.468H124.479H124.49H124.501H124.512H124.523H124.535H124.546H124.557H124.568H124.578H124.589H124.6H124.611H124.622H124.633H124.644H124.654H124.665H124.676H124.686H124.697H124.708H124.718H124.729H124.739H124.75H124.76H124.771H124.781H124.791H124.802H124.812H124.822H124.832H124.843H124.853H124.863H124.873H124.883H124.893H124.903H124.914H124.924H124.934H124.943H124.953H124.963H124.973H124.983H124.993H125.003H125.012H125.022H125.032H125.042H125.051H125.061H125.071H125.08H125.09H125.099H125.109H125.118H125.128H125.137H125.147H125.156H125.166H125.175H125.184H125.194H125.203H125.212H125.222H125.231H125.24H125.249H125.259H125.268H125.277H125.286H125.295H125.304H125.313H125.322H125.331H125.34H125.349H125.358H125.367H125.376H125.385H125.394H125.403H125.411H125.42H125.429H125.438H125.447H125.455H125.464H125.473H125.482H125.49H125.499H125.508H125.516H125.525H125.533H125.542H125.55H125.559H125.568H125.576H125.585H125.593H125.601H125.61H125.618H125.627H125.635H125.643H125.652H125.66H125.669H125.677H125.685H125.693H125.702H125.71H125.718H125.726H125.735H125.743H125.751H125.759H125.767H125.776H125.784H125.792H125.8H125.808H125.816H125.824H125.832H125.84H125.848H125.856H125.864H125.872H125.88H125.888H125.896H125.904H125.912H125.92H125.928H125.936H125.944H125.952H125.96H125.968H125.976H125.983H125.991H125.999H126.007H126.015H126.023H126.03H126.038H126.046H126.054H126.062H126.069H126.077H126.085H126.093H126.1H126.108H126.116H126.123H126.131H126.139H126.147H126.154H126.162H126.17H126.177H126.185H126.193H126.2H126.208H126.216H126.223H126.231H126.238H126.246H126.254H126.261H126.269H126.276H126.284H126.292H126.299H126.307H126.314H126.322H126.33H126.337H126.345H126.352H126.36H126.367H126.375H126.383H126.39H126.398H126.405H126.413H126.42H126.428H126.435H126.443H126.451H126.458H126.466H126.473H126.481H126.488H126.496H126.503H126.511H126.518H126.526H126.533H126.541H126.549H126.556H126.564H126.571H126.579H126.586H126.594H126.601H126.609H126.616H126.624H126.632H126.639H126.647H126.654H126.662H126.669H126.677H126.685H126.692H126.7H126.707H126.715H126.723H126.73H126.738H126.745H126.753H126.761H126.768H126.776H126.784H126.791H126.799H126.806H126.814H126.822H126.829H126.837H126.845H126.852H126.86H126.868H126.876H126.883H126.891H126.899H126.906H126.914H126.922H126.93H126.938H126.945H126.953H126.961H126.969H126.976H126.984H126.992H127H127.008H127.016H127.023H127.031H127.039H127.047H127.055H127.063H127.071H127.079H127.087H127.095H127.103H127.111H127.119H127.127H127.135H127.143H127.151H127.159H127.167H127.175H127.183H127.191H127.199H127.207H127.215H127.223H127.232H127.24H127.248H127.256H127.264H127.273H127.281H127.289H127.297H127.306H127.314H127.322H127.33H127.339H127.347H127.355H127.364H127.372H127.381H127.389H127.398H127.406H127.414H127.423H127.431H127.44H127.449H127.457H127.466H127.474H127.483H127.491H127.5H127.509H127.517H127.526H127.535H127.544H127.552H127.561H127.57H127.579H127.587H127.596H127.605H127.614H127.623H127.632H127.641H127.65H127.659H127.668H127.677H127.686H127.695H127.704H127.713H127.722H127.731H127.74H127.75C128.382 126.4 128.9 125.884 128.9 125.247V125.203V125.159V125.115V125.071V125.027V124.984V124.94V124.896V124.853V124.81V124.766V124.723V124.68V124.637V124.593V124.55V124.507V124.464V124.422V124.379V124.336V124.294V124.251V124.208V124.166V124.124V124.081V124.039V123.997V123.955V123.913V123.871V123.829V123.787V123.745V123.703V123.661V123.62V123.578V123.537V123.495V123.454V123.413V123.371V123.33V123.289V123.248V123.207V123.166V123.125V123.085V123.044V123.003V122.963V122.922V122.882V122.841V122.801V122.761V122.72V122.68V122.64V122.6V122.56V122.52V122.48V122.441V122.401V122.361V122.322V122.282V122.243V122.203V122.164V122.125V122.085V122.046V122.007V121.968V121.929V121.89V121.851V121.813V121.774V121.735V121.697V121.658V121.62V121.581V121.543V121.505V121.467V121.428V121.39V121.352V121.314V121.276V121.239V121.201V121.163V121.125V121.088V121.05V121.013V120.975V120.938V120.901V120.864V120.826V120.789V120.752V120.715V120.678V120.641V120.605V120.568V120.531V120.495V120.458V120.422V120.385V120.349V120.313V120.276V120.24V120.204V120.168V120.132V120.096V120.06V120.024V119.989V119.953V119.917V119.882V119.846V119.811V119.775V119.74V119.705V119.669V119.634V119.599V119.564V119.529V119.494V119.459V119.425V119.39V119.355V119.321V119.286V119.252V119.217V119.183V119.149V119.114V119.08V119.046V119.012V118.978V118.944V118.91V118.876V118.842V118.809V118.775V118.741V118.708V118.674V118.641V118.608V118.574V118.541V118.508V118.475V118.442V118.409V118.376V118.343V118.31V118.277V118.245V118.212V118.179V118.147V118.114V118.082V118.05V118.017V117.985V117.953V117.921V117.889V117.857V117.825V117.793V117.761V117.729V117.698V117.666V117.634V117.603V117.571V117.54V117.508V117.477V117.446V117.415V117.384V117.353V117.322V117.291V117.26V117.229V117.198V117.167V117.137V117.106V117.075V117.045V117.015V116.984V116.954V116.924V116.893V116.863V116.833V116.803V116.773V116.743V116.713V116.684V116.654V116.624V116.594V116.565V116.535V116.506V116.476V116.447V116.418V116.389V116.359V116.33V116.301V116.272V116.243V116.214V116.185V116.157V116.128V116.099V116.071V116.042V116.014V115.985V115.957V115.928V115.9V115.872V115.844V115.816V115.788V115.76V115.732V115.704V115.676V115.648V115.62V115.593V115.565V115.538V115.51V115.483V115.455V115.428V115.401V115.373V115.346V115.319V115.292V115.265V115.238V115.211V115.184V115.158V115.131V115.104V115.078V115.051V115.025V114.998V114.972V114.945V114.919V114.893V114.867V114.841V114.815V114.789V114.763V114.737V114.711V114.685V114.659V114.634V114.608V114.582V114.557V114.531V114.506V114.481V114.455V114.43V114.405V114.38V114.355V114.33V114.305V114.28V114.255V114.23V114.205V114.181V114.156V114.131V114.107V114.082V114.058V114.034V114.009V113.985V113.961V113.937V113.912V113.888V113.864V113.84V113.816V113.793V113.769V113.745V113.721V113.698V113.674V113.651V113.627V113.604V113.58V113.557V113.534V113.511V113.487V113.464V113.441V113.418V113.395V113.372V113.35V113.327V113.304V113.281V113.259V113.236V113.214V113.191V113.169V113.146V113.124V113.102V113.079V113.057V113.035V113.013V112.991V112.969V112.947V112.925V112.904V112.882V112.86V112.839V112.817V112.795V112.774V112.752V112.731V112.71V112.688V112.667V112.646V112.625V112.604V112.583V112.562V112.541V112.52V112.499V112.478V112.458V112.437V112.416V112.396V112.375V112.355V112.334V112.314V112.294V112.273V112.253V112.233V112.213V112.193V112.173V112.153V112.133V112.113V112.093V112.074V112.054V112.034V112.015V111.995V111.976V111.956V111.937V111.917V111.898V111.879V111.86V111.841V111.821V111.802V111.783V111.764V111.745V111.727V111.708V111.689V111.67V111.652V111.633V111.615V111.596V111.578V111.559V111.541V111.523V111.504V111.486V111.468V111.45V111.432V111.414V111.396V111.378V111.36V111.342V111.324V111.307V111.289V111.271V111.254V111.236V111.219V111.201V111.184V111.167V111.149V111.132V111.115V111.098V111.081V111.064V111.047V111.03V111.013V110.996V110.979V110.963V110.946V110.929V110.913V110.896V110.88V110.863V110.847V110.83V110.814V110.798V110.781V110.765V110.749V110.733V110.717V110.701V110.685V110.669V110.653V110.638V110.622V110.606V110.591V110.575V110.559V110.544V110.528V110.513V110.498V110.482V110.467C128.9 108.873 128.501 107.5 127.592 106.6C126.719 105.736 125.544 104.856 124.1 104.395Z" fill="#FC6300"/>
</g>
</g>
<g filter="url(#filter1_d_2641_157362)">
<rect x="244.35" y="74.85" width="49.3" height="21.3" rx="4.65" fill="white" stroke="#E2E86B" stroke-width="2.7"/>
<path fill-rule="evenodd" clip-rule="evenodd" d="M255.75 83.792C256.682 83.792 257.437 83.0365 257.437 82.1045C257.437 81.1725 256.682 80.417 255.75 80.417C254.818 80.417 254.062 81.1725 254.062 82.1045C254.062 83.0365 254.818 83.792 255.75 83.792ZM251.285 88.8571C251.561 86.6367 253.455 84.9185 255.75 84.9185C258.045 84.9185 259.939 86.6367 260.215 88.8571C260.254 89.1654 259.998 89.4185 259.687 89.4185H251.812C251.502 89.4185 251.246 89.1654 251.285 88.8571Z" fill="#E2E86B"/>
<circle cx="270" cy="85.5" r="1.5" fill="#E2E86B"/>
<circle cx="277.5" cy="85.5" r="1.5" fill="#E2E86B"/>
<circle cx="285" cy="85.5" r="1.5" fill="#E2E86B"/>
</g>
<g filter="url(#filter2_d_2641_157362)">
<rect x="7.35" y="143.85" width="49.3" height="21.3" rx="4.65" fill="white" stroke="#B3DEE5" stroke-width="2.7"/>
<g clip-path="url(#clip2_2641_157362)">
<path d="M21.5968 155.108L23.0986 156.61C23.1466 156.658 23.1847 156.715 23.2107 156.778C23.2367 156.84 23.2501 156.908 23.2501 156.976C23.2501 157.043 23.2367 157.111 23.2107 157.174C23.1847 157.236 23.1466 157.293 23.0986 157.341C22.5704 157.869 21.8695 158.189 21.1246 158.242C20.3796 158.295 19.6405 158.078 19.043 157.629L18.1498 156.959C17.161 156.218 16.2826 155.339 15.541 154.35L14.8707 153.457C14.4226 152.86 14.205 152.121 14.2579 151.376C14.3108 150.631 14.6307 149.93 15.1588 149.402C15.2068 149.354 15.2638 149.315 15.3266 149.289C15.3894 149.263 15.4566 149.25 15.5246 149.25C15.5925 149.25 15.6598 149.263 15.7226 149.289C15.7853 149.315 15.8423 149.354 15.8904 149.402L17.3921 150.903C17.4985 151.01 17.5582 151.154 17.5582 151.304C17.5582 151.455 17.4985 151.599 17.3921 151.705L16.8131 152.284C16.7681 152.329 16.7384 152.387 16.7283 152.45C16.7181 152.512 16.7279 152.577 16.7564 152.634C17.4293 153.98 18.5206 155.071 19.8665 155.744C19.9233 155.772 19.9876 155.782 20.0504 155.772C20.1131 155.762 20.171 155.732 20.2159 155.687L20.7943 155.109C20.847 155.056 20.9095 155.014 20.9784 154.985C21.0472 154.957 21.121 154.942 21.1956 154.942C21.2701 154.942 21.3439 154.957 21.4127 154.985C21.4816 155.014 21.5441 155.056 21.5968 155.109V155.108Z" fill="#B3DEE5" stroke="#B3DEE5" stroke-width="0.567127" stroke-linejoin="round"/>
</g>
<circle cx="33" cy="154.5" r="1.5" fill="#B3DEE5"/>
<circle cx="40.5" cy="154.5" r="1.5" fill="#B3DEE5"/>
<circle cx="48" cy="154.5" r="1.5" fill="#B3DEE5"/>
</g>
<g filter="url(#filter3_d_2641_157362)">
<rect x="32.85" y="31.35" width="49.3" height="21.3" rx="4.65" fill="white" stroke="#FFB17E" stroke-width="2.7"/>
<circle cx="58.5" cy="42" r="1.5" fill="#FFB17E"/>
<circle cx="66" cy="42" r="1.5" fill="#FFB17E"/>
<circle cx="73.5" cy="42" r="1.5" fill="#FFB17E"/>
<path fill-rule="evenodd" clip-rule="evenodd" d="M42.7498 40.292C43.6818 40.292 44.4373 39.5365 44.4373 38.6045C44.4373 37.6725 43.6818 36.917 42.7498 36.917C41.8178 36.917 41.0623 37.6725 41.0623 38.6045C41.0623 39.5365 41.8178 40.292 42.7498 40.292ZM38.2846 45.3571C38.5609 43.1367 40.4547 41.4185 42.7499 41.4185C45.0451 41.4185 46.9389 43.1367 47.2152 45.3571C47.2536 45.6654 46.9981 45.9185 46.6874 45.9185H38.8124C38.5018 45.9185 38.2462 45.6654 38.2846 45.3571Z" fill="#FFB17E"/>
<path fill-rule="evenodd" clip-rule="evenodd" d="M48.1875 45.9185H52.6875C52.9982 45.9185 53.2537 45.6654 53.2153 45.3571C52.939 43.1367 51.0452 41.4185 48.75 41.4185C47.9304 41.4185 47.1619 41.6376 46.5 42.0205C47.6915 42.7097 48.5377 43.9297 48.7153 45.3571C48.7537 45.6654 48.4982 45.9185 48.1875 45.9185ZM50.4375 38.6045C50.4375 39.5365 49.682 40.292 48.75 40.292C47.818 40.292 47.0625 39.5365 47.0625 38.6045C47.0625 37.6725 47.818 36.917 48.75 36.917C49.682 36.917 50.4375 37.6725 50.4375 38.6045Z" fill="#FFB17E"/>
</g>
<defs>
<filter id="filter0_d_2641_157362" x="63" y="30" width="192" height="192" filterUnits="userSpaceOnUse" color-interpolation-filters="sRGB">
<feFlood flood-opacity="0" result="BackgroundImageFix"/>
<feColorMatrix in="SourceAlpha" type="matrix" values="0 0 0 0 0 0 0 0 0 0 0 0 0 0 0 0 0 0 127 0" result="hardAlpha"/>
<feOffset dy="6"/>
<feGaussianBlur stdDeviation="3"/>
<feComposite in2="hardAlpha" operator="out"/>
<feColorMatrix type="matrix" values="0 0 0 0 0 0 0 0 0 0 0 0 0 0 0 0 0 0 0.25 0"/>
<feBlend mode="normal" in2="BackgroundImageFix" result="effect1_dropShadow_2641_157362"/>
<feBlend mode="normal" in="SourceGraphic" in2="effect1_dropShadow_2641_157362" result="shape"/>
</filter>
<filter id="filter1_d_2641_157362" x="237" y="73.5" width="64" height="36" filterUnits="userSpaceOnUse" color-interpolation-filters="sRGB">
<feFlood flood-opacity="0" result="BackgroundImageFix"/>
<feColorMatrix in="SourceAlpha" type="matrix" values="0 0 0 0 0 0 0 0 0 0 0 0 0 0 0 0 0 0 127 0" result="hardAlpha"/>
<feOffset dy="6"/>
<feGaussianBlur stdDeviation="3"/>
<feComposite in2="hardAlpha" operator="out"/>
<feColorMatrix type="matrix" values="0 0 0 0 0.894118 0 0 0 0 0.890196 0 0 0 0 0.894118 0 0 0 1 0"/>
<feBlend mode="normal" in2="BackgroundImageFix" result="effect1_dropShadow_2641_157362"/>
<feBlend mode="normal" in="SourceGraphic" in2="effect1_dropShadow_2641_157362" result="shape"/>
</filter>
<filter id="filter2_d_2641_157362" x="0" y="142.5" width="64" height="36" filterUnits="userSpaceOnUse" color-interpolation-filters="sRGB">
<feFlood flood-opacity="0" result="BackgroundImageFix"/>
<feColorMatrix in="SourceAlpha" type="matrix" values="0 0 0 0 0 0 0 0 0 0 0 0 0 0 0 0 0 0 127 0" result="hardAlpha"/>
<feOffset dy="6"/>
<feGaussianBlur stdDeviation="3"/>
<feComposite in2="hardAlpha" operator="out"/>
<feColorMatrix type="matrix" values="0 0 0 0 0.894118 0 0 0 0 0.890196 0 0 0 0 0.894118 0 0 0 1 0"/>
<feBlend mode="normal" in2="BackgroundImageFix" result="effect1_dropShadow_2641_157362"/>
<feBlend mode="normal" in="SourceGraphic" in2="effect1_dropShadow_2641_157362" result="shape"/>
</filter>
<filter id="filter3_d_2641_157362" x="25.5" y="30" width="64.5" height="36" filterUnits="userSpaceOnUse" color-interpolation-filters="sRGB">
<feFlood flood-opacity="0" result="BackgroundImageFix"/>
<feColorMatrix in="SourceAlpha" type="matrix" values="0 0 0 0 0 0 0 0 0 0 0 0 0 0 0 0 0 0 127 0" result="hardAlpha"/>
<feOffset dy="6"/>
<feGaussianBlur stdDeviation="3"/>
<feComposite in2="hardAlpha" operator="out"/>
<feColorMatrix type="matrix" values="0 0 0 0 0.894118 0 0 0 0 0.890196 0 0 0 0 0.894118 0 0 0 1 0"/>
<feBlend mode="normal" in2="BackgroundImageFix" result="effect1_dropShadow_2641_157362"/>
<feBlend mode="normal" in="SourceGraphic" in2="effect1_dropShadow_2641_157362" result="shape"/>
</filter>
<linearGradient id="paint0_linear_2641_157362" x1="150" y1="0" x2="150" y2="240" gradientUnits="userSpaceOnUse">
<stop stop-color="#FEF4E9"/>
<stop offset="1" stop-color="white"/>
</linearGradient>
<clipPath id="clip0_2641_157362">
<rect width="36" height="36" fill="white" transform="translate(192 133.5)"/>
</clipPath>
<clipPath id="clip1_2641_157362">
<rect width="60" height="60" fill="white" transform="translate(84 91.5)"/>
</clipPath>
<clipPath id="clip2_2641_157362">
<rect width="13.5" height="13.5" fill="white" transform="translate(12 147)"/>
</clipPath>
</defs>
</svg>
