<svg width="40" height="40" viewBox="0 0 40 40" fill="none" xmlns="http://www.w3.org/2000/svg">
<path fill-rule="evenodd" clip-rule="evenodd" d="M1.48727 4H17.0154C17.3338 4 17.5899 4.25805 17.5899 4.57449V10.0858C17.5899 10.4042 17.3319 10.6603 17.0154 10.6603H12.8151V35.8041C12.8151 36.0886 12.5853 36.3184 12.3009 36.3184H6.19244C5.90802 36.3184 5.67822 36.0886 5.67822 35.8041V10.6603H1.48727C1.16895 10.6603 0.912781 10.4023 0.912781 10.0858V4.57449C0.912781 4.25617 1.17083 4 1.48727 4ZM22.3346 15.8702L22.3421 24.4065C22.3421 24.5968 22.5719 24.691 22.7057 24.5572L26.8288 20.4341C26.9757 20.2853 26.9757 20.0461 26.8288 19.8973L22.6812 15.727C22.5531 15.5989 22.3346 15.6894 22.3346 15.8702ZM17.5672 24.4065L17.5597 15.8702C17.5597 15.6894 17.7782 15.5989 17.9063 15.727L22.0539 19.8973C22.2008 20.0461 22.2008 20.2853 22.0539 20.4341L17.9308 24.5572C17.797 24.691 17.5672 24.5968 17.5672 24.4065ZM22.3385 4.40308C22.3385 4.18082 22.5174 4 22.7397 4L22.7416 4.00188C31.7695 4.00188 39.0872 11.231 39.0872 20.1498C39.0872 29.0685 31.7695 36.2976 22.7416 36.2976H22.7378C22.5193 36.2957 22.3404 36.1187 22.3404 35.8983V30.0687C22.3404 29.8502 22.5118 29.6675 22.7303 29.658C26.2978 29.5092 29.3718 27.5108 30.954 24.6251C31.698 23.2991 32.1218 21.7715 32.1218 20.1479C32.1218 17.217 30.743 14.6083 28.5957 12.9093C26.9947 11.6078 24.9585 10.7922 22.7284 10.6999C22.5099 10.6905 22.3385 10.5077 22.3385 10.2893V4.40308Z" fill="#FC6300"/>
</svg>
