<svg width="24" height="24" viewBox="0 0 24 24" fill="none" xmlns="http://www.w3.org/2000/svg">
<g clip-path="url(#clip0_61_1730)">
<path fill-rule="evenodd" clip-rule="evenodd" d="M12 3.5C12.2761 3.5 12.5 3.72386 12.5 4V11.5H20C20.2761 11.5 20.5 11.7239 20.5 12C20.5 12.2761 20.2761 12.5 20 12.5H12.5V20C12.5 20.2761 12.2761 20.5 12 20.5C11.7239 20.5 11.5 20.2761 11.5 20V12.5H4C3.72386 12.5 3.5 12.2761 3.5 12C3.5 11.7239 3.72386 11.5 4 11.5H11.5V4C11.5 3.72386 11.7239 3.5 12 3.5Z" fill="white"/>
</g>
<defs>
<clipPath id="clip0_61_1730">
<rect width="24" height="24" fill="white"/>
</clipPath>
</defs>
</svg>
