<svg width="24" height="24" viewBox="0 0 24 24" fill="none" xmlns="http://www.w3.org/2000/svg">
<path d="M17 3.5C18.3807 3.5 19.5 4.61929 19.5 6V20C19.5 20.1842 19.3986 20.3533 19.2363 20.4404C19.0737 20.5274 18.8761 20.5183 18.7227 20.416L16 18.6006L13.2773 20.416C13.1094 20.528 12.8906 20.528 12.7227 20.416L10 18.6006L7.27734 20.416C7.12392 20.5183 6.92625 20.5274 6.76367 20.4404C6.60137 20.3533 6.5 20.1842 6.5 20V14.5H4C3.72386 14.5 3.5 14.2761 3.5 14V6C3.5 4.61929 4.61929 3.5 6 3.5H17ZM7.5 19.0654L9.72266 17.584C9.89061 17.472 10.1094 17.472 10.2773 17.584L13 19.3994L15.7227 17.584C15.8906 17.472 16.1094 17.472 16.2773 17.584L18.5 19.0654V6C18.5 5.17157 17.8284 4.5 17 4.5H7.5V19.0654ZM6 4.5C5.17157 4.5 4.5 5.17157 4.5 6V13.5H6.5V4.5H6ZM16 13.5H9V12.5H16V13.5ZM17 10.5H9V9.5H17V10.5Z" fill="#FC6300"/>
</svg>
