<svg width="24" height="24" viewBox="0 0 24 24" fill="none" xmlns="http://www.w3.org/2000/svg">
<g clip-path="url(#clip0_61_1102)">
<path fill-rule="evenodd" clip-rule="evenodd" d="M6 3.5C6.27614 3.5 6.5 3.72386 6.5 4V6H17.5V4C17.5 3.72386 17.7239 3.5 18 3.5C18.2761 3.5 18.5 3.72386 18.5 4V6H19C19.5523 6 20 6.44772 20 7V19C20 19.5523 19.5523 20 19 20H5C4.44772 20 4 19.5523 4 19V7C4 6.96548 4.00175 6.93137 4.00516 6.89776C4.05637 6.3935 4.48223 6 5 6H5.5V4C5.5 3.72386 5.72386 3.5 6 3.5ZM19 9H5V19H19V9Z" fill="#FC6300"/>
</g>
<defs>
<clipPath id="clip0_61_1102">
<rect width="24" height="24" fill="white"/>
</clipPath>
</defs>
</svg>
