<svg width="40" height="40" viewBox="0 0 40 40" fill="none" xmlns="http://www.w3.org/2000/svg">
<g clip-path="url(#clip0_1184_50823)">
<circle cx="20" cy="20" r="12" fill="#FC6300"/>
<path fill-rule="evenodd" clip-rule="evenodd" d="M15.4242 14.5758C15.1899 14.3414 14.81 14.3414 14.5756 14.5758C14.3413 14.8101 14.3413 15.19 14.5756 15.4243L19.1515 20.0001L14.5758 24.5758C14.3415 24.8101 14.3415 25.19 14.5758 25.4243C14.8101 25.6586 15.19 25.6586 15.4244 25.4243L20 20.8486L24.5756 25.4243C24.81 25.6586 25.1899 25.6586 25.4242 25.4243C25.6585 25.19 25.6585 24.8101 25.4242 24.5758L20.8485 20.0001L25.4244 15.4243C25.6587 15.19 25.6587 14.8101 25.4244 14.5758C25.19 14.3414 24.8101 14.3414 24.5758 14.5758L20 19.1516L15.4242 14.5758Z" fill="white"/>
</g>
<defs>
<clipPath id="clip0_1184_50823">
<rect width="40" height="40" fill="white"/>
</clipPath>
</defs>
</svg>
