<svg width="24" height="24" viewBox="0 0 24 24" fill="none" xmlns="http://www.w3.org/2000/svg">
<g clip-path="url(#clip0_2482_29496)">
<path fill-rule="evenodd" clip-rule="evenodd" d="M17.3841 11.3201C17.5609 11.108 17.5322 10.7927 17.3201 10.6159C17.108 10.4391 16.7927 10.4678 16.6159 10.6799L12.5 15.619V6C12.5 5.72386 12.2762 5.5 12 5.5C11.7239 5.5 11.5 5.72386 11.5 6V15.619L7.38412 10.6799C7.20734 10.4678 6.89206 10.4391 6.67992 10.6159C6.46778 10.7927 6.43912 11.108 6.6159 11.3201L11.6159 17.3201C11.7109 17.4341 11.8516 17.5 12 17.5C12.1484 17.5 12.2891 17.4341 12.3841 17.3201L17.3841 11.3201ZM7.00003 18.5C6.72388 18.5 6.50003 18.7239 6.50003 19C6.50003 19.2761 6.72388 19.5 7.00003 19.5H17C17.2762 19.5 17.5 19.2761 17.5 19C17.5 18.7239 17.2762 18.5 17 18.5H7.00003Z" fill="#FC6300"/>
</g>
<defs>
<clipPath id="clip0_2482_29496">
<rect width="24" height="24" fill="white"/>
</clipPath>
</defs>
</svg>
