<svg width="24" height="24" viewBox="0 0 24 24" fill="none" xmlns="http://www.w3.org/2000/svg">
<g clip-path="url(#clip0_630_8350)">
<path fill-rule="evenodd" clip-rule="evenodd" d="M12 9.5C10.6193 9.5 9.5 10.6193 9.5 12C9.5 13.3807 10.6193 14.5 12 14.5C13.3807 14.5 14.5 13.3807 14.5 12C14.5 10.6193 13.3807 9.5 12 9.5ZM10.5 12C10.5 11.1716 11.1716 10.5 12 10.5C12.8284 10.5 13.5 11.1716 13.5 12C13.5 12.8284 12.8284 13.5 12 13.5C11.1716 13.5 10.5 12.8284 10.5 12Z" fill="#909090"/>
<path fill-rule="evenodd" clip-rule="evenodd" d="M13.7173 6.33627C13.1519 6.22145 12.5765 6.16481 12 6.16654C11.4233 6.16481 10.8479 6.22177 10.2827 6.33655L10.2662 6.34019C9.32014 6.53549 8.42778 6.89461 7.58899 7.41278L7.57671 7.42015C6.06208 8.35831 4.73077 9.8101 3.57125 11.7426C3.47625 11.901 3.47625 12.0988 3.57125 12.2571C4.73774 14.2013 6.07809 15.6547 7.59312 16.5895C8.91481 17.4124 10.4429 17.8437 12 17.8332C13.5571 17.8437 15.085 17.4124 16.4067 16.5897C17.1242 16.1469 17.8026 15.5879 18.4419 14.9154C18.4491 14.9086 18.4562 14.9016 18.4631 14.8943C18.7585 14.5815 19.0454 14.2447 19.3238 13.8841C19.708 13.3871 20.0763 12.8445 20.4287 12.2571C20.5238 12.0988 20.5238 11.901 20.4287 11.7426C18.619 8.7264 16.3908 6.8912 13.741 6.34168C13.7332 6.3397 13.7253 6.33789 13.7173 6.33627ZM11.9984 6.16655L12 6.16654L12.0016 6.16655L12 6.66647L11.9984 6.16655ZM7.24173 8.88358C6.29132 9.65193 5.40456 10.6863 4.58603 11.9999C6.62954 15.2796 9.10252 16.8332 12 16.8332C14.1423 16.8332 16.0526 15.9839 17.7288 14.2155L17.736 14.2077C18.3235 13.5857 18.8832 12.8507 19.4139 11.9997C17.3704 8.72008 14.8974 7.16655 12 7.16655C10.2606 7.16655 8.67412 7.72644 7.24173 8.88358Z" fill="#909090"/>
</g>
<defs>
<clipPath id="clip0_630_8350">
<rect width="24" height="24" fill="white"/>
</clipPath>
</defs>
</svg>
