<svg width="24" height="24" viewBox="0 0 24 24" fill="none" xmlns="http://www.w3.org/2000/svg">
<g clip-path="url(#clip0_285_6564)">
<path fill-rule="evenodd" clip-rule="evenodd" d="M3.64645 3.64645C3.84171 3.45118 4.15829 3.45118 4.35355 3.64645L16.4602 15.7531C16.4978 15.7811 16.5318 15.8148 16.561 15.8539L20.3536 19.6464C20.5488 19.8417 20.5488 20.1583 20.3536 20.3536C20.1583 20.5488 19.8417 20.5488 19.6464 20.3536L16.0773 16.7844C14.8336 17.4806 13.4281 17.8433 11.9982 17.8333C8.57124 17.8327 5.76405 15.9119 3.57125 12.2572C3.47625 12.0989 3.47625 11.9011 3.57125 11.7428C4.59677 10.0336 5.75668 8.7004 7.05894 7.76605L3.64645 4.35355C3.45118 4.15829 3.45118 3.84171 3.64645 3.64645ZM7.77671 8.48382C6.62237 9.2782 5.55627 10.443 4.58603 12C6.62954 15.2798 9.10252 16.8333 12 16.8333H12.0036V16.8333C13.1653 16.8417 14.3088 16.5701 15.3385 16.0456L13.2183 13.9254C12.8567 14.1544 12.4347 14.2788 11.9999 14.2789C11.3958 14.279 10.8164 14.0391 10.3891 13.612C9.96187 13.1849 9.72179 12.6055 9.72168 12.0014C9.7216 11.5664 9.846 11.1441 10.0752 10.7823L7.77671 8.48382ZM10.8149 11.522L12.4786 13.1857C12.3278 13.2466 12.1654 13.2788 11.9997 13.2789C11.6608 13.2789 11.3358 13.1443 11.0961 12.9047C10.8564 12.6652 10.7217 12.3402 10.7217 12.0013C10.7217 11.8354 10.7539 11.6728 10.8149 11.522ZM10.4819 7.31654C10.9811 7.21517 11.4893 7.16491 11.9986 7.16654L12.0002 7.16655C14.8976 7.16655 17.3706 8.72008 19.4141 11.9997C18.8834 12.8507 18.3237 13.5857 17.7362 14.2077C17.5466 14.4085 17.5557 14.7249 17.7565 14.9145C17.9572 15.1041 18.2737 15.0951 18.4633 14.8943C19.1662 14.15 19.8208 13.2697 20.4288 12.2573C20.5239 12.0989 20.524 11.901 20.4289 11.7426C18.2359 8.08762 15.4284 6.16684 12.001 6.16655C11.424 6.16475 10.8484 6.22171 10.2829 6.33655C10.0123 6.39151 9.83747 6.65544 9.89242 6.92606C9.94738 7.19667 10.2113 7.3715 10.4819 7.31654Z" fill="#909090"/>
</g>
<defs>
<clipPath id="clip0_285_6564">
<rect width="24" height="24" fill="white"/>
</clipPath>
</defs>
</svg>
