<svg width="24" height="24" viewBox="0 0 24 24" fill="none" xmlns="http://www.w3.org/2000/svg">
<g clip-path="url(#clip0_55_149)">
<path d="M11.6326 13.2054C11.6271 13.4551 11.8439 13.6413 12.0936 13.6413C12.3909 13.6413 12.6158 13.3789 12.6553 13.0842C12.7518 12.3645 13.1967 11.8175 13.641 11.2714C14.1411 10.6566 14.6403 10.0429 14.6403 9.18514C14.6403 7.84705 13.7319 7 12.3447 7C11.5123 7 10.8262 7.33551 10.2934 7.8265C10.1206 7.98583 10.1373 8.25613 10.3101 8.4156C10.4899 8.58165 10.7688 8.5625 10.958 8.40715C11.3251 8.10573 11.752 7.93298 12.222 7.93298C13.0936 7.93298 13.5478 8.52223 13.5478 9.25879C13.5478 9.89272 13.1386 10.3995 12.6985 10.9447C12.1964 11.5665 11.6541 12.2382 11.6326 13.2054Z" fill="#FC6300"/>
<path d="M11.3749 15.6669C11.3749 16.1702 11.7432 16.5139 12.1851 16.5139C12.6393 16.5139 13.0076 16.1702 13.0076 15.6669C13.0076 15.1513 12.6393 14.7953 12.1851 14.7953C11.7432 14.7953 11.3749 15.1513 11.3749 15.6669Z" fill="#FC6300"/>
<path fill-rule="evenodd" clip-rule="evenodd" d="M20 12C20 16.4183 16.4183 20 12 20C7.58172 20 4 16.4183 4 12C4 7.58172 7.58172 4 12 4C16.4183 4 20 7.58172 20 12ZM19 12C19 15.866 15.866 19 12 19C8.13401 19 5 15.866 5 12C5 8.13401 8.13401 5 12 5C15.866 5 19 8.13401 19 12Z" fill="#FC6300"/>
</g>
<defs>
<clipPath id="clip0_55_149">
<rect width="24" height="24" fill="white"/>
</clipPath>
</defs>
</svg>
