<svg width="32" height="32" viewBox="0 0 32 32" fill="none" xmlns="http://www.w3.org/2000/svg">
<g clip-path="url(#clip0_840_33095)">
<path fill-rule="evenodd" clip-rule="evenodd" d="M6 7.9999C6 7.66853 6.23843 7.3999 6.53254 7.3999L25.4675 7.3999C25.7616 7.3999 26 7.66853 26 7.9999C26 8.33128 25.7616 8.5999 25.4675 8.5999L6.53254 8.5999C6.23843 8.5999 6 8.33127 6 7.9999ZM6 15.9999C6 15.6685 6.23843 15.3999 6.53254 15.3999L25.4675 15.3999C25.7616 15.3999 26 15.6685 26 15.9999C26 16.3313 25.7616 16.5999 25.4675 16.5999L6.53254 16.5999C6.23843 16.5999 6 16.3313 6 15.9999ZM6.53254 23.3999C6.23843 23.3999 6 23.6685 6 23.9999C6 24.3313 6.23843 24.5999 6.53254 24.5999L25.4675 24.5999C25.7616 24.5999 26 24.3313 26 23.9999C26 23.6685 25.7616 23.3999 25.4675 23.3999L6.53254 23.3999Z" fill="#FC6300"/>
</g>
<defs>
<clipPath id="clip0_840_33095">
<rect width="32" height="32" fill="white"/>
</clipPath>
</defs>
</svg>
