<svg width="24" height="24" viewBox="0 0 24 24" fill="none" xmlns="http://www.w3.org/2000/svg">
<g clip-path="url(#clip0_61_1636)">
<path fill-rule="evenodd" clip-rule="evenodd" d="M7.93978 5.11595C9.1699 4.39018 10.5711 4.005 11.9993 4C13.2991 3.99978 14.5793 4.31627 15.7292 4.92209C16.8791 5.5279 17.8641 6.40479 18.5989 7.47688C19.3337 8.54897 19.7962 9.78397 19.9464 11.075C20.0966 12.366 19.9299 13.6742 19.4608 14.8864C18.9918 16.0985 18.2344 17.1781 17.2542 18.0317C16.2741 18.8853 15.1007 19.4872 13.8356 19.7853C12.5705 20.0835 11.2519 20.0689 9.9937 19.7428C8.73553 19.4167 7.57577 18.7889 6.61478 17.9138C6.56619 17.8695 6.52681 17.8161 6.49889 17.7565C6.47096 17.697 6.45503 17.6325 6.45201 17.5668C6.449 17.5011 6.45895 17.4355 6.4813 17.3737C6.50365 17.3118 6.53796 17.255 6.58228 17.2064C6.6266 17.1578 6.68005 17.1184 6.73959 17.0905C6.79913 17.0626 6.86358 17.0466 6.92927 17.0436C6.99496 17.0406 7.06061 17.0506 7.12245 17.0729C7.1843 17.0953 7.24114 17.1296 7.28972 17.1739C8.37897 18.1649 9.75305 18.7872 11.2164 18.9521C12.6798 19.1169 14.1579 18.8161 15.4403 18.0923C16.7228 17.3685 17.7443 16.2587 18.3595 14.9207C18.9747 13.5827 19.1522 12.0848 18.8668 10.6401C18.5814 9.19542 17.8476 7.87754 16.7699 6.87403C15.6921 5.87051 14.3253 5.23249 12.8639 5.05076C11.4026 4.86902 9.92111 5.15284 8.63038 5.86181C7.33966 6.57078 6.30542 7.66879 5.67486 8.99958H8.39963C8.53222 8.99958 8.65939 9.05225 8.75315 9.14601C8.84691 9.23977 8.89959 9.36694 8.89959 9.49954C8.89959 9.63213 8.84691 9.7593 8.75315 9.85306C8.65939 9.94682 8.53222 9.99949 8.39963 9.99949H5C4.44772 9.99949 4 9.55178 4 8.99949V5.59987C4 5.46727 4.05267 5.3401 4.14643 5.24634C4.24019 5.15258 4.36736 5.09991 4.49996 5.09991C4.63255 5.09991 4.75972 5.15258 4.85348 5.24634C4.94724 5.3401 4.99992 5.46727 4.99992 5.59987V8.12965C5.69495 6.88191 6.70966 5.84172 7.93978 5.11595ZM11.6459 8.06072C11.7396 7.96696 11.8668 7.91429 11.9994 7.91429C12.132 7.91429 12.2592 7.96696 12.3529 8.06072C12.4467 8.15448 12.4993 8.28165 12.4993 8.41424V12.2439L14.9991 13.9388C15.1075 14.0127 15.1824 14.1263 15.2078 14.255C15.2331 14.3837 15.2069 14.5172 15.1348 14.6267C15.0626 14.7362 14.9503 14.813 14.8221 14.8405C14.6938 14.868 14.5599 14.844 14.4492 14.7737L11.4994 12.7739V8.41424C11.4994 8.28165 11.5521 8.15448 11.6459 8.06072Z" fill="#FC6300"/>
</g>
<defs>
<clipPath id="clip0_61_1636">
<rect width="24" height="24" fill="white"/>
</clipPath>
</defs>
</svg>
