<svg width="40" height="40" viewBox="0 0 40 40" fill="none" xmlns="http://www.w3.org/2000/svg">
<g clip-path="url(#clip0_282_6047)">
<path fill-rule="evenodd" clip-rule="evenodd" d="M8.36118 10H18.1236C18.3238 10 18.4848 10.1622 18.4848 10.3612V13.8261C18.4848 14.0263 18.3226 14.1873 18.1236 14.1873H15.4829V29.9951C15.4829 30.1739 15.3384 30.3184 15.1596 30.3184H11.3193C11.1405 30.3184 10.996 30.1739 10.996 29.9951V14.1873H8.36118C8.16105 14.1873 8 14.0251 8 13.8261V10.3612C8 10.1611 8.16223 10 8.36118 10ZM21.4678 17.4628L21.4725 22.8296C21.4725 22.9492 21.617 23.0084 21.7011 22.9243L24.2933 20.3321C24.3856 20.2386 24.3856 20.0882 24.2933 19.9946L21.6857 17.3728C21.6051 17.2923 21.4678 17.3491 21.4678 17.4628ZM18.4706 22.8296L18.4658 17.4628C18.4658 17.3491 18.6032 17.2923 18.6837 17.3728L21.2913 19.9946C21.3837 20.0882 21.3837 20.2386 21.2913 20.3321L18.6991 22.9243C18.615 23.0084 18.4706 22.9492 18.4706 22.8296ZM21.4702 10.2535C21.4702 10.1138 21.5827 10.0001 21.7224 10.0001L21.7236 10.0013C27.3995 10.0013 32 14.5462 32 20.1534C32 25.7605 27.3995 30.3054 21.7236 30.3054H21.7213C21.5839 30.3043 21.4714 30.193 21.4714 30.0544V26.3893C21.4714 26.252 21.5792 26.1371 21.7165 26.1312C23.9594 26.0376 25.892 24.7812 26.8867 22.967C27.3545 22.1333 27.6209 21.173 27.6209 20.1522C27.6209 18.3096 26.7541 16.6695 25.4041 15.6013C24.3975 14.7831 23.1174 14.2703 21.7153 14.2123C21.578 14.2064 21.4702 14.0915 21.4702 13.9541V10.2535Z" fill="#FC6300"/>
</g>
<defs>
<clipPath id="clip0_282_6047">
<rect width="40" height="40" fill="white"/>
</clipPath>
</defs>
</svg>
