<svg width="24" height="24" viewBox="0 0 24 24" fill="none" xmlns="http://www.w3.org/2000/svg">
<g clip-path="url(#clip0_55_191)">
<path d="M4.5 3.5C4.22386 3.5 4 3.72386 4 4V20C4 20.2761 4.22386 20.5 4.5 20.5H16.5C16.7761 20.5 17 20.2761 17 20V17C17 16.7239 16.7761 16.5 16.5 16.5C16.2239 16.5 16 16.7239 16 17V19.5H5V4.5H16V7C16 7.27614 16.2239 7.5 16.5 7.5C16.7761 7.5 17 7.27614 17 7V4C17 3.72386 16.7761 3.5 16.5 3.5H4.5Z" fill="#FC6300"/>
<path d="M16.1464 9.35355C15.9512 9.15829 15.9512 8.84171 16.1464 8.64645C16.3417 8.45118 16.6583 8.45118 16.8536 8.64645L19.8536 11.6464C20.0488 11.8417 20.0488 12.1583 19.8536 12.3536L16.8536 15.3536C16.6583 15.5488 16.3417 15.5488 16.1464 15.3536C15.9512 15.1583 15.9512 14.8417 16.1464 14.6464L18.2929 12.5H11.5C11.2239 12.5 11 12.2761 11 12C11 11.7239 11.2239 11.5 11.5 11.5H18.2929L16.1464 9.35355Z" fill="#FC6300"/>
</g>
<defs>
<clipPath id="clip0_55_191">
<rect width="24" height="24" fill="white"/>
</clipPath>
</defs>
</svg>
