<svg width="32" height="32" viewBox="0 0 32 32" fill="none" xmlns="http://www.w3.org/2000/svg">
<g clip-path="url(#clip0_5691_220083)">
<path fill-rule="evenodd" clip-rule="evenodd" d="M5.9999 7.40002C5.11625 7.40002 4.3999 8.11637 4.3999 9.00002V23C4.3999 23.8837 5.11625 24.6 5.9999 24.6H25.3332C26.2169 24.6 26.9332 23.8837 26.9332 23V9.00002C26.9332 8.11637 26.2169 7.40002 25.3332 7.40002H5.9999ZM5.5999 9.20028V23C5.5999 23.2209 5.77899 23.4 5.9999 23.4H25.3332C25.5541 23.4 25.7332 23.2209 25.7332 23V9.19989L16.6263 16.0301C16.0574 16.4568 15.2752 16.4568 14.7063 16.0301L5.5999 9.20028ZM24.5331 8.60002H6.79957L15.4263 15.0701C15.5685 15.1768 15.7641 15.1768 15.9063 15.0701L24.5331 8.60002Z" fill="#FC6300"/>
</g>
<defs>
<clipPath id="clip0_5691_220083">
<rect width="32" height="32" fill="white"/>
</clipPath>
</defs>
</svg>
