<svg width="24" height="24" viewBox="0 0 24 24" fill="none" xmlns="http://www.w3.org/2000/svg">
<g clip-path="url(#clip0_1533_69292)">
<path fill-rule="evenodd" clip-rule="evenodd" d="M5 5.5C4.17157 5.5 3.5 6.17157 3.5 7V17C3.5 17.8284 4.17157 18.5 5 18.5H19C19.8284 18.5 20.5 17.8284 20.5 17V7C20.5 6.17157 19.8284 5.5 19 5.5H5ZM4.5 7V17C4.5 17.2761 4.72386 17.5 5 17.5H19C19.2761 17.5 19.5 17.2761 19.5 17V7C19.5 6.99997 19.5 6.99994 19.5 6.99991L12.8999 11.95C12.3666 12.35 11.6333 12.35 11.0999 11.95L4.5 7ZM18.4999 6.5H5.49999L11.6999 11.15C11.8777 11.2833 12.1222 11.2833 12.2999 11.15L18.4999 6.5Z" fill="#FC6300"/>
</g>
<defs>
<clipPath id="clip0_1533_69292">
<rect width="24" height="24" fill="white"/>
</clipPath>
</defs>
</svg>
