<svg width="32" height="32" viewBox="0 0 32 32" fill="none" xmlns="http://www.w3.org/2000/svg">
<g clip-path="url(#clip0_5691_220119)">
<path d="M26.5621 7.12829C26.3691 7.04571 26.1566 7 25.9333 7H6.6C6.38286 7 6.17582 7.04325 5.98704 7.12162L6.43561 7.47697L16.0264 14.6701C16.1686 14.7767 16.3642 14.7767 16.5064 14.6701L26.5621 7.12829Z" fill="#FC6300"/>
<path d="M5.12796 7.97198C5.04559 8.16479 5 8.37707 5 8.6V22.6C5 23.4837 5.71635 24.2 6.6 24.2H25.9333C26.817 24.2 27.5333 23.4837 27.5333 22.6V8.6C27.5333 8.38405 27.4906 8.1781 27.413 7.99015L17.2264 15.6301C16.6575 16.0567 15.8753 16.0567 15.3064 15.6301L5.70291 8.42745L5.12796 7.97198Z" fill="#FC6300"/>
</g>
<defs>
<clipPath id="clip0_5691_220119">
<rect width="32" height="32" fill="white"/>
</clipPath>
</defs>
</svg>
