<svg width="32" height="32" viewBox="0 0 32 32" fill="none" xmlns="http://www.w3.org/2000/svg">
<g clip-path="url(#clip0_840_33081)">
<path fill-rule="evenodd" clip-rule="evenodd" d="M14.6665 6.66683C14.6665 5.93045 15.2635 5.3335 15.9998 5.3335C16.7362 5.3335 17.3332 5.93045 17.3332 6.66683C17.3332 6.69755 17.3321 6.72803 17.3301 6.75823C21.1153 7.28611 23.9999 10.0289 23.9999 13.3332C23.9999 14.9095 23.9171 15.741 23.8579 16.336C23.7787 17.1308 23.7416 17.5038 23.9999 18.6665C24.2234 19.6721 24.771 20.8317 25.3123 21.8123C25.8348 22.759 25.1737 23.9998 24.0924 23.9998H7.90748C6.8262 23.9998 6.16509 22.759 6.68761 21.8123C7.22885 20.8317 7.77648 19.6721 7.99995 18.6665C8.25834 17.5038 8.22119 17.1308 8.14203 16.336C8.08276 15.741 7.99995 14.9095 7.99995 13.3332C7.99995 10.029 10.8845 7.28622 14.6696 6.75826C14.6675 6.72805 14.6665 6.69756 14.6665 6.66683ZM15.9999 7.8665C12.0303 7.8665 9.19995 10.5096 9.19995 13.3332C9.19995 14.8494 9.27792 15.6326 9.33645 16.2204L9.33646 16.2205C9.34652 16.3216 9.356 16.4168 9.36442 16.5091C9.43288 17.2594 9.42246 17.7969 9.17137 18.9268C8.90946 20.1054 8.2928 21.3874 7.7382 22.3922C7.69541 22.4697 7.6903 22.5784 7.74818 22.6839C7.77519 22.7331 7.8073 22.7634 7.83188 22.779C7.85218 22.792 7.87377 22.7998 7.90748 22.7998H24.0924C24.1261 22.7998 24.1477 22.792 24.168 22.779C24.1926 22.7634 24.2247 22.7331 24.2517 22.6839C24.3096 22.5784 24.3045 22.4697 24.2617 22.3922C23.7071 21.3874 23.0904 20.1054 22.8285 18.9268C22.5774 17.7969 22.567 17.2594 22.6355 16.5091C22.6439 16.4168 22.6534 16.3215 22.6634 16.2204C22.722 15.6326 22.7999 14.8494 22.7999 13.3332C22.7999 10.5096 19.9696 7.8665 15.9999 7.8665ZM13.9334 24C13.9334 25.1414 14.8587 26.0667 16.0001 26.0667C17.1415 26.0667 18.0667 25.1414 18.0667 24H19.2667C19.2667 25.8041 17.8042 27.2667 16.0001 27.2667C14.1959 27.2667 12.7334 25.8041 12.7334 24H13.9334Z" fill="#FC6300"/>
</g>
<defs>
<clipPath id="clip0_840_33081">
<rect width="32" height="32" fill="white"/>
</clipPath>
</defs>
</svg>
