<svg width="39" height="41" viewBox="0 0 39 41" fill="none" xmlns="http://www.w3.org/2000/svg">
<path d="M6.22266 9.5C7.22222 7 9.72266 0 19.7227 0C29.7227 0 31.7227 7 32.7227 10.5C33.7227 14 33.2227 20.5 33.7227 22C34.2227 23.5 37.7222 27 38.2222 28.5C38.7222 30 38.2222 32.5 38.2222 32.5H0.222222C0.222222 32.5 -0.277778 29.5 0.222222 28.5C0.722222 27.5 4.22222 24 4.72266 22C5.22309 20 5.22309 12 6.22266 9.5Z" fill="white"/>
<path d="M24.7227 35H13.7227C13.7227 35 13.2227 41 19.2227 41C25.2227 41 24.7227 35 24.7227 35Z" fill="white"/>
<rect x="16" y="8" width="3" height="16" fill="#0ABF4C"/>
<rect x="25" y="21" width="3" height="6" transform="rotate(90 25 21)" fill="#0ABF4C"/>
</svg>
