<svg width="32" height="32" viewBox="0 0 32 32" fill="none" xmlns="http://www.w3.org/2000/svg">
<g clip-path="url(#clip0_840_33088)">
<path d="M17.3301 6.75823C17.3321 6.72803 17.3332 6.69755 17.3332 6.66683C17.3332 5.93045 16.7362 5.3335 15.9998 5.3335C15.2635 5.3335 14.6665 5.93045 14.6665 6.66683C14.6665 6.69756 14.6675 6.72805 14.6696 6.75826C10.8845 7.28622 7.99995 10.029 7.99995 13.3332C7.99995 14.9095 8.08276 15.741 8.14203 16.336C8.15192 16.4353 8.16116 16.5281 8.16925 16.6166C8.22586 17.2364 8.22604 17.6491 7.99995 18.6665C7.77648 19.6721 7.22885 20.8317 6.68761 21.8123C6.16509 22.759 6.8262 23.9998 7.90748 23.9998H24.0924C25.1737 23.9998 25.8348 22.759 25.3123 21.8123C24.771 20.8317 24.2234 19.6721 23.9999 18.6665C23.7416 17.5038 23.7787 17.1308 23.8579 16.336C23.9171 15.741 23.9999 14.9095 23.9999 13.3332C23.9999 10.0289 21.1153 7.28611 17.3301 6.75823Z" fill="#FC6300"/>
<path d="M13.9334 24C13.9334 25.1414 14.8587 26.0667 16.0001 26.0667C17.1415 26.0667 18.0667 25.1414 18.0667 24H19.2667C19.2667 25.8041 17.8042 27.2667 16.0001 27.2667C14.1959 27.2667 12.7334 25.8041 12.7334 24H13.9334Z" fill="#FC6300"/>
</g>
<defs>
<clipPath id="clip0_840_33088">
<rect width="32" height="32" fill="white"/>
</clipPath>
</defs>
</svg>
