<svg width="32" height="32" viewBox="0 0 32 32" fill="none" xmlns="http://www.w3.org/2000/svg">
<g clip-path="url(#clip0_1896_34598)">
<circle cx="23" cy="11" r="2" fill="#EA0B0B"/>
<path d="M15.9998 5.3335C15.2635 5.3335 14.6665 5.93045 14.6665 6.66683C14.6665 6.69756 14.6675 6.72805 14.6696 6.75826C10.8845 7.28622 7.99995 10.029 7.99995 13.3332C7.99995 14.9095 8.08276 15.741 8.14203 16.336C8.22119 17.1308 8.25834 17.5038 7.99995 18.6665C7.77648 19.6721 7.22885 20.8317 6.68761 21.8123C6.16509 22.759 6.8262 23.9998 7.90748 23.9998H24.0924C25.1737 23.9998 25.8348 22.759 25.3123 21.8123C24.771 20.8317 24.2234 19.6721 23.9999 18.6665C23.7416 17.5038 23.7787 17.1308 23.8579 16.336C23.9106 15.8069 23.997 13.8303 23.997 13.8303C23.997 13.8303 23.3495 14 23 14C22.931 14 22.7946 13.9931 22.7946 13.9931C22.7946 13.9931 22.7128 15.7245 22.6634 16.2204C22.6534 16.3215 22.6439 16.4168 22.6355 16.5091C22.567 17.2594 22.5774 17.7969 22.8285 18.9268C23.0904 20.1054 23.7071 21.3874 24.2617 22.3922C24.3045 22.4697 24.3096 22.5784 24.2517 22.6839C24.2247 22.7331 24.1926 22.7634 24.168 22.779C24.1477 22.792 24.1261 22.7998 24.0924 22.7998H7.90748C7.87377 22.7998 7.85218 22.792 7.83188 22.779C7.8073 22.7634 7.77519 22.7331 7.74818 22.6839C7.6903 22.5784 7.69541 22.4697 7.7382 22.3922C8.2928 21.3874 8.90946 20.1054 9.17137 18.9268C9.42246 17.7969 9.43288 17.2594 9.36442 16.5091C9.356 16.4168 9.34652 16.3216 9.33646 16.2205C9.27793 15.6326 9.19995 14.8494 9.19995 13.3332C9.19995 10.5096 12.0303 7.8665 15.9999 7.8665C17.8037 7.8665 20.5469 9.27261 20.5469 9.27261C20.5469 9.27261 21.0847 8.6548 21.4342 8.44057C20.3155 7.57733 18.9003 6.97721 17.3301 6.75823C17.3321 6.72803 17.3332 6.69755 17.3332 6.66683C17.3332 5.93045 16.7362 5.3335 15.9998 5.3335Z" fill="#FC6300"/>
<path d="M16.0001 26.0667C14.8587 26.0667 13.9334 25.1414 13.9334 24H12.7334C12.7334 25.8041 14.1959 27.2667 16.0001 27.2667C17.8042 27.2667 19.2667 25.8041 19.2667 24H18.0667C18.0667 25.1414 17.1415 26.0667 16.0001 26.0667Z" fill="#FC6300"/>
</g>
<defs>
<clipPath id="clip0_1896_34598">
<rect width="32" height="32" fill="white"/>
</clipPath>
</defs>
</svg>
