<svg width="24" height="24" viewBox="0 0 24 24" fill="none" xmlns="http://www.w3.org/2000/svg">
<g clip-path="url(#clip0_62_3881)">
<path d="M19.7308 17.0841L17.061 14.4143V14.4153C16.9674 14.3216 16.8562 14.2472 16.7338 14.1965C16.6114 14.1458 16.4802 14.1196 16.3477 14.1196C16.2152 14.1196 16.084 14.1458 15.9616 14.1965C15.8392 14.2472 15.728 14.3216 15.6344 14.4153L14.606 15.4437C14.5262 15.5237 14.4233 15.5764 14.3118 15.5945C14.2003 15.6126 14.0859 15.5951 13.9849 15.5445C11.5922 14.3482 9.65212 12.4081 8.45582 10.0154C8.40522 9.91445 8.38773 9.80009 8.40583 9.6886C8.42393 9.57711 8.4767 9.47416 8.55664 9.39437L9.58604 8.36497C9.85007 8.10094 9.88124 7.9195 9.88124 7.65216C9.88124 7.38481 9.77505 7.12841 9.58604 6.93934L6.91626 4.26956C6.83087 4.18414 6.72949 4.11638 6.61791 4.07015C6.50633 4.02392 6.38673 4.00012 6.26595 4.00012C6.14517 4.00012 6.02558 4.02392 5.914 4.07015C5.80242 4.11638 5.70104 4.18414 5.61565 4.26956C4.67684 5.20846 4.1082 6.45449 4.01412 7.77889C3.92003 9.10329 4.30682 10.4172 5.10347 11.4794L6.29519 13.0673C7.61355 14.8252 9.17512 16.3868 10.933 17.7052L12.521 18.8969C13.5832 19.6935 14.8971 20.0803 16.2215 19.9862C17.5459 19.8922 18.7919 19.3235 19.7308 18.3847C19.8162 18.2993 19.884 18.198 19.9302 18.0864C19.9764 17.9748 20.0002 17.8552 20.0002 17.7344C20.0002 17.6136 19.9764 17.494 19.9302 17.3825C19.884 17.2709 19.8162 17.1695 19.7308 17.0841Z" stroke="#FC6300" stroke-width="1.00823" stroke-linejoin="round"/>
</g>
<defs>
<clipPath id="clip0_62_3881">
<rect width="24" height="24" fill="white"/>
</clipPath>
</defs>
</svg>
