<svg width="24" height="24" viewBox="0 0 24 24" fill="none" xmlns="http://www.w3.org/2000/svg">
<g clip-path="url(#clip0_51_1119)">
<path d="M7 8C7.55228 8 8 7.55228 8 7C8 6.44772 7.55228 6 7 6C6.44772 6 6 6.44772 6 7C6 7.55228 6.44772 8 7 8Z" fill="white"/>
<path fill-rule="evenodd" clip-rule="evenodd" d="M10.6178 8.25407C9.95656 7.72508 8.98882 7.84794 8.48075 8.52537L5.79979 12.1C5.05815 13.0888 5.76373 14.5 6.99979 14.5H15.036C16.262 14.5 16.9702 13.1092 16.2491 12.1177L13.9769 8.99347C13.4988 8.33602 12.5839 8.17911 11.914 8.63967L11.4761 8.94073L10.6178 8.25407ZM9.28075 9.12537C9.45011 8.89956 9.77269 8.85861 9.9931 9.03494L11.431 10.1853L12.4806 9.46371C12.7039 9.31019 13.0088 9.36249 13.1682 9.58164L15.4404 12.7059C15.6807 13.0364 15.4447 13.5 15.036 13.5H6.99979C6.58777 13.5 6.35258 13.0296 6.59979 12.7L9.28075 9.12537Z" fill="white"/>
<path fill-rule="evenodd" clip-rule="evenodd" d="M4 5C4 4.44772 4.44772 4 5 4H17C17.5523 4 18 4.44772 18 5V8H19C19.5523 8 20 8.44772 20 9V19C20 19.5523 19.5523 20 19 20H7C6.44772 20 6 19.5523 6 19V16H5C4.44772 16 4 15.5523 4 15V5ZM5 5H17V15H5V5ZM7 16V19H19V9H18V15C18 15.5523 17.5523 16 17 16H7Z" fill="white"/>
</g>
<defs>
<clipPath id="clip0_51_1119">
<rect width="24" height="24" fill="white"/>
</clipPath>
</defs>
</svg>
