<svg width="32" height="32" viewBox="0 0 32 32" fill="none" xmlns="http://www.w3.org/2000/svg">
<path d="M20.4214 11.2451C20.0769 10.8004 19.6081 10.4681 19.0745 10.2902L17.6965 9.84219C17.5907 9.80453 17.4992 9.73506 17.4345 9.6433C17.3697 9.55155 17.335 9.442 17.335 9.32971C17.335 9.21742 17.3697 9.10788 17.4345 9.01612C17.4992 8.92437 17.5907 8.8549 17.6965 8.81724L19.0745 8.36926C19.4822 8.22845 19.8525 7.99661 20.1573 7.69132C20.4621 7.38604 20.6933 7.01533 20.8334 6.60735L20.8444 6.57335L21.2924 5.19642C21.3296 5.08994 21.399 4.99767 21.491 4.93239C21.583 4.8671 21.693 4.83203 21.8058 4.83203C21.9186 4.83203 22.0287 4.8671 22.1206 4.93239C22.2126 4.99767 22.2821 5.08994 22.3193 5.19642L22.7663 6.57335C22.906 6.99187 23.1413 7.37208 23.4536 7.68381C23.7658 7.99555 24.1464 8.23024 24.5652 8.36926L25.9421 8.81724L25.9701 8.82424C26.0759 8.86189 26.1675 8.93137 26.2322 9.02312C26.2969 9.11488 26.3317 9.22442 26.3317 9.33671C26.3317 9.449 26.2969 9.55855 26.2322 9.6503C26.1675 9.74206 26.0759 9.81153 25.9701 9.84919L24.5922 10.2972C24.1736 10.4363 23.7932 10.6711 23.4811 10.9828C23.1691 11.2945 22.9339 11.6747 22.7943 12.0931L22.3463 13.47L22.3333 13.504C22.2901 13.6046 22.2175 13.6899 22.1251 13.7486C22.0327 13.8073 21.9247 13.8367 21.8152 13.833C21.7058 13.8294 21.6 13.7928 21.5117 13.728C21.4234 13.6632 21.3567 13.5733 21.3204 13.47L20.8724 12.0931C20.7723 11.7866 20.6201 11.4998 20.4224 11.2451M28.117 15.0459L27.3511 14.7979C27.1186 14.7202 26.9075 14.5895 26.7343 14.4162C26.5611 14.2428 26.4306 14.0315 26.3531 13.799L26.1031 13.035C26.0824 12.976 26.0439 12.9248 25.9928 12.8886C25.9418 12.8524 25.8807 12.8329 25.8181 12.8329C25.7555 12.8329 25.6945 12.8524 25.6434 12.8886C25.5924 12.9248 25.5538 12.976 25.5331 13.035L25.2852 13.799C25.2091 14.03 25.0807 14.2403 24.9101 14.4136C24.7394 14.5869 24.531 14.7184 24.3012 14.7979L23.5362 15.0459C23.4772 15.0666 23.426 15.1052 23.3898 15.1562C23.3536 15.2073 23.3341 15.2683 23.3341 15.3309C23.3341 15.3935 23.3536 15.4545 23.3898 15.5056C23.426 15.5567 23.4772 15.5952 23.5362 15.6159L24.3012 15.8649C24.5343 15.9426 24.7461 16.0737 24.9197 16.2476C25.0933 16.4215 25.2239 16.6336 25.3012 16.8668L25.5491 17.6308C25.5698 17.6899 25.6084 17.741 25.6594 17.7772C25.7105 17.8134 25.7715 17.8329 25.8341 17.8329C25.8967 17.8329 25.9578 17.8134 26.0088 17.7772C26.0599 17.741 26.0984 17.6899 26.1191 17.6308L26.3681 16.8668C26.4457 16.6342 26.5763 16.4229 26.7497 16.2495C26.9231 16.0761 27.1344 15.9455 27.3671 15.8679L28.132 15.6199C28.1911 15.5992 28.2423 15.5607 28.2785 15.5096C28.3147 15.4585 28.3341 15.3975 28.3341 15.3349C28.3341 15.2723 28.3147 15.2113 28.2785 15.1602C28.2423 15.1092 28.1911 15.0706 28.132 15.0499L28.117 15.0459ZM15.3177 5.96938C15.6139 5.86202 15.9294 5.81809 16.2437 5.84043C16.5581 5.86277 16.8642 5.95089 17.1423 6.09909C17.4204 6.24728 17.6642 6.45223 17.8581 6.70068C18.0519 6.94912 18.1914 7.23551 18.2675 7.5413L17.3836 7.83329C17.1797 7.90563 16.9926 8.01856 16.8336 8.16527V8.08527C16.8334 7.96496 16.8042 7.84646 16.7486 7.73978C16.6929 7.6331 16.6124 7.54137 16.5139 7.47234C16.4154 7.40331 16.3016 7.35901 16.1824 7.34316C16.0631 7.32732 15.9418 7.3404 15.8286 7.38131L8.98897 9.85619C8.65093 9.9784 8.35872 10.2018 8.15208 10.4959C7.94544 10.79 7.83439 11.1406 7.83403 11.5001V17.5818C7.83408 17.7022 7.86312 17.8208 7.91869 17.9276C7.97427 18.0344 8.05474 18.1263 8.1533 18.1954C8.25187 18.2646 8.36564 18.309 8.48498 18.3249C8.60433 18.3408 8.72575 18.3277 8.83898 18.2868L9.33396 18.1078V19.7027C8.99471 19.8226 8.63164 19.8595 8.27522 19.8101C7.9188 19.7607 7.57942 19.6265 7.28556 19.4189C6.9917 19.2112 6.75194 18.9361 6.58638 18.6166C6.42083 18.2972 6.33432 17.9426 6.33411 17.5828V11.4991C6.33411 10.8312 6.53992 10.1795 6.92354 9.63266C7.30715 9.08587 7.84993 8.67056 8.478 8.44326L15.3177 5.96938ZM12.1478 11.5641L16.4936 9.99118C16.6631 10.3638 16.9613 10.6628 17.3336 10.8331L17.9855 11.0471L12.6588 12.975C12.4171 13.0624 12.2081 13.2222 12.0605 13.4327C11.9129 13.6431 11.8337 13.8939 11.8338 14.151V20.5826C11.8339 20.703 11.8629 20.8217 11.9185 20.9285C11.9741 21.0353 12.0545 21.1271 12.1531 21.1963C12.2517 21.2654 12.3654 21.3098 12.4848 21.3257C12.6041 21.3416 12.7256 21.3286 12.8388 21.2876L13.3338 21.1076V22.7035C12.9943 22.8235 12.6311 22.8603 12.2745 22.8109C11.9179 22.7614 11.5784 22.627 11.2845 22.4192C10.9906 22.2113 10.7509 21.9359 10.5855 21.6162C10.4201 21.2964 10.3338 20.9416 10.3339 20.5816V14.15C10.3337 13.5846 10.5077 13.0329 10.8323 12.57C11.1568 12.1071 11.6162 11.7565 12.1478 11.5641ZM15.8176 14.6829L20.1334 13.121L20.3344 13.831C20.4224 14.088 20.5744 14.312 20.7694 14.486L16.3296 16.0929C16.1847 16.1453 16.0594 16.2411 15.9708 16.3672C15.8822 16.4933 15.8347 16.6437 15.8346 16.7978V23.5805C15.8347 23.7009 15.8637 23.8195 15.9193 23.9263C15.9749 24.0331 16.0553 24.125 16.1539 24.1941C16.2525 24.2633 16.3662 24.3077 16.4856 24.3236C16.6049 24.3395 16.7264 24.3264 16.8396 24.2855L24.3392 21.5716C24.4841 21.5192 24.6094 21.4234 24.698 21.2973C24.7866 21.1711 24.8341 21.0208 24.8342 20.8666V18.4188C25.0482 18.6947 25.3462 18.8817 25.7941 18.8817C26.0051 18.8817 26.1831 18.8397 26.3341 18.7677V20.8676C26.334 21.3299 26.1915 21.7809 25.926 22.1593C25.6605 22.5377 25.2848 22.8252 24.8502 22.9825L17.3506 25.6964C17.0108 25.8196 16.6463 25.8591 16.288 25.8116C15.9297 25.7642 15.5881 25.631 15.2921 25.4236C14.9961 25.2161 14.7545 24.9403 14.5877 24.6197C14.4209 24.2991 14.3337 23.9429 14.3337 23.5815V16.7988C14.3336 16.3364 14.476 15.8852 14.7416 15.5066C15.0071 15.128 15.3828 14.8404 15.8176 14.6829Z" fill="#FC6300"/>
</svg>
