<svg width="32" height="32" viewBox="0 0 32 32" fill="none" xmlns="http://www.w3.org/2000/svg">
<g clip-path="url(#clip0_1433_155134)">
<path fill-rule="evenodd" clip-rule="evenodd" d="M26.8 16C26.8 21.9647 21.9647 26.8 16 26.8C10.0353 26.8 5.2 21.9647 5.2 16C5.2 10.0353 10.0353 5.2 16 5.2C21.9647 5.2 26.8 10.0353 26.8 16ZM28 16C28 22.6274 22.6274 28 16 28C9.37258 28 4 22.6274 4 16C4 9.37258 9.37258 4 16 4C22.6274 4 28 9.37258 28 16ZM22.8 16C22.8 19.7555 19.7555 22.8 16 22.8C12.2445 22.8 9.2 19.7555 9.2 16C9.2 12.2445 12.2445 9.2 16 9.2C19.7555 9.2 22.8 12.2445 22.8 16ZM24 16C24 20.4183 20.4183 24 16 24C11.5817 24 8 20.4183 8 16C8 11.5817 11.5817 8 16 8C20.4183 8 24 11.5817 24 16Z" fill="#FC6300"/>
</g>
<defs>
<clipPath id="clip0_1433_155134">
<rect width="32" height="32" fill="white"/>
</clipPath>
</defs>
</svg>
