<svg width="24" height="24" viewBox="0 0 24 24" fill="none" xmlns="http://www.w3.org/2000/svg">
<g clip-path="url(#clip0_55_267)">
<path fill-rule="evenodd" clip-rule="evenodd" d="M13.0195 13.7266C12.0658 14.5217 10.8387 15 9.5 15C6.46243 15 4 12.5376 4 9.5C4 6.46243 6.46243 4 9.5 4C12.5376 4 15 6.46243 15 9.5C15 10.8387 14.5217 12.0658 13.7266 13.0195L19.3535 18.6464C19.5488 18.8417 19.5488 19.1583 19.3535 19.3535C19.1583 19.5488 18.8417 19.5488 18.6464 19.3535L13.0195 13.7266ZM14 9.5C14 11.9853 11.9853 14 9.5 14C7.01472 14 5 11.9853 5 9.5C5 7.01472 7.01472 5 9.5 5C11.9853 5 14 7.01472 14 9.5Z" fill="#2D2D2D"/>
</g>
<defs>
<clipPath id="clip0_55_267">
<rect width="24" height="24" fill="white"/>
</clipPath>
</defs>
</svg>
