<svg width="24" height="24" viewBox="0 0 24 24" fill="none" xmlns="http://www.w3.org/2000/svg">
<g clip-path="url(#clip0_51_1091)">
<path fill-rule="evenodd" clip-rule="evenodd" d="M12 14C13.1046 14 14 13.1046 14 12C14 10.8954 13.1046 10 12 10C10.8954 10 10 10.8954 10 12C10 13.1046 10.8954 14 12 14ZM12 15C13.6569 15 15 13.6569 15 12C15 10.3431 13.6569 9 12 9C10.3431 9 9 10.3431 9 12C9 13.6569 10.3431 15 12 15Z" fill="#FC6300"/>
<path fill-rule="evenodd" clip-rule="evenodd" d="M13 7.04859V5H11V7.04859L10.3332 7.28425C10.1663 7.34327 10.0033 7.41093 9.84494 7.48672L9.20659 7.79219L7.75751 6.34311L6.3433 7.75732L7.79234 9.20636L7.48682 9.84474C7.41099 10.0032 7.34329 10.1662 7.28425 10.3332L7.04859 11H5L5 13H7.04859L7.28425 13.6668C7.34329 13.8338 7.41099 13.9968 7.48682 14.1553L7.79234 14.7936L6.34311 16.2429L7.75732 17.6571L9.20659 16.2078L9.84494 16.5133C10.0033 16.5891 10.1663 16.6567 10.3332 16.7157L11 16.9514V19H13V16.9514L13.6668 16.7157C13.8338 16.6567 13.9968 16.589 14.1553 16.5132L14.7936 16.2077L16.2429 17.6569L17.6571 16.2427L16.2078 14.7934L16.5133 14.1551C16.5891 13.9967 16.6567 13.8337 16.7157 13.6668L16.9514 13H19V11H16.9514L16.7157 10.3332C16.6567 10.1663 16.5891 10.0033 16.5133 9.84494L16.2078 9.20659L17.6569 7.75751L16.2427 6.3433L14.7936 7.79234L14.1553 7.48682C13.9968 7.41099 13.8338 7.34329 13.6668 7.28425L13 7.04859ZM14 5C14 4.44772 13.5523 4 13 4H11C10.4477 4 10 4.44772 10 5V6.34141C9.79932 6.41234 9.60353 6.49365 9.4133 6.58468L8.46462 5.636C8.07409 5.24548 7.44093 5.24548 7.0504 5.636L5.63619 7.05022C5.24567 7.44074 5.24567 8.07391 5.63619 8.46443L6.5848 9.41304C6.49372 9.60336 6.41237 9.79923 6.34141 10H5C4.44772 10 4 10.4477 4 11V13C4 13.5523 4.44772 14 5 14H6.34141C6.41237 14.2008 6.49372 14.3966 6.5848 14.587L5.636 15.5358C5.24548 15.9263 5.24548 16.5594 5.636 16.95L7.05022 18.3642C7.44074 18.7547 8.07391 18.7547 8.46443 18.3642L9.4133 17.4153C9.60353 17.5064 9.79932 17.5877 10 17.6586V19C10 19.5523 10.4477 20 11 20H13C13.5523 20 14 19.5523 14 19V17.6586C14.2008 17.5876 14.3966 17.5063 14.587 17.4152L15.5358 18.364C15.9263 18.7545 16.5594 18.7545 16.95 18.364L18.3642 16.9498C18.7547 16.5593 18.7547 15.9261 18.3642 15.5356L17.4153 14.5867C17.5064 14.3965 17.5877 14.2007 17.6586 14H19C19.5523 14 20 13.5523 20 13V11C20 10.4477 19.5523 10 19 10H17.6586C17.5877 9.79932 17.5064 9.60353 17.4153 9.4133L18.364 8.46462C18.7545 8.07409 18.7545 7.44093 18.364 7.0504L16.9498 5.63619C16.5593 5.24567 15.9261 5.24567 15.5356 5.63619L14.587 6.5848C14.3966 6.49372 14.2008 6.41237 14 6.34141V5Z" fill="#FC6300"/>
</g>
<defs>
<clipPath id="clip0_51_1091">
<rect width="24" height="24" fill="white"/>
</clipPath>
</defs>
</svg>
