<svg width="24" height="24" viewBox="0 0 24 24" fill="none" xmlns="http://www.w3.org/2000/svg">
<g clip-path="url(#clip0_51_1112)">
<path fill-rule="evenodd" clip-rule="evenodd" d="M13 13C13 12.4477 13.4477 12 14 12H16C16.5523 12 17 12.4477 17 13V16C17 16.5523 16.5523 17 16 17H14C13.4477 17 13 16.5523 13 16V13ZM14 13H16V16H14V13Z" fill="#FC6300"/>
<path fill-rule="evenodd" clip-rule="evenodd" d="M7.56597 3.5C7.03908 3.5 6.55082 3.77645 6.27973 4.22826L3.71354 8.50524C3.5815 8.72532 3.47842 9.01905 3.52341 9.34467C3.64433 10.2199 4.21773 10.9504 5 11.2921V18H4C3.72386 18 3.5 18.2239 3.5 18.5C3.5 18.7761 3.72386 19 4 19H20C20.2761 19 20.5 18.7761 20.5 18.5C20.5 18.2239 20.2761 18 20 18H19V11.2919C19.7821 10.9501 20.3553 10.2198 20.4762 9.34467C20.5211 9.01905 20.4181 8.72532 20.286 8.50524L17.7198 4.22826C17.4487 3.77645 16.9605 3.5 16.4336 3.5H7.56597ZM11 18H8V13H11V18ZM18 18H12V13C12 12.4477 11.5523 12 11 12H8C7.44772 12 7 12.4477 7 13V18H6V11.5C6.81771 11.4999 7.54371 11.1073 7.99978 10.5002C8.4559 11.1073 9.18198 11.5 9.99978 11.5C10.8176 11.5 11.5437 11.1073 11.9998 10.5002C12.4559 11.1073 13.182 11.5 13.9998 11.5C14.8176 11.5 15.5437 11.1073 15.9998 10.5002C16.4559 11.1073 17.182 11.5 17.9998 11.5L18 18ZM9.99978 10.5C9.17135 10.5 8.49978 9.82843 8.49978 9C8.49978 8.72386 8.27592 8.5 7.99978 8.5C7.72364 8.5 7.49978 8.72386 7.49978 9C7.49978 9.82843 6.82821 10.5 5.99978 10.5C5.24206 10.5 4.61484 9.93771 4.514 9.20781C4.50938 9.17435 4.51658 9.11049 4.57104 9.01974L7.13723 4.74275C7.22759 4.59215 7.39034 4.5 7.56597 4.5H16.4336C16.6092 4.5 16.772 4.59215 16.8623 4.74275L19.4285 9.01974C19.483 9.11049 19.4902 9.17435 19.4856 9.20781C19.3847 9.93771 18.7575 10.5 17.9998 10.5C17.1714 10.5 16.4998 9.82843 16.4998 9C16.4998 8.72386 16.2759 8.5 15.9998 8.5C15.7236 8.5 15.4998 8.72386 15.4998 9C15.4998 9.82843 14.8282 10.5 13.9998 10.5C13.1714 10.5 12.4998 9.82843 12.4998 9C12.4998 8.72386 12.2759 8.5 11.9998 8.5C11.7236 8.5 11.4998 8.72386 11.4998 9C11.4998 9.82843 10.8282 10.5 9.99978 10.5Z" fill="#FC6300"/>
</g>
<defs>
<clipPath id="clip0_51_1112">
<rect width="24" height="24" fill="white"/>
</clipPath>
</defs>
</svg>
