<svg width="24" height="24" viewBox="0 0 24 24" fill="none" xmlns="http://www.w3.org/2000/svg">
<g clip-path="url(#clip0_51_1098)">
<path fill-rule="evenodd" clip-rule="evenodd" d="M15.1628 4.13079C15.0591 4.22552 15 4.35952 15 4.5V19.5C15 19.7761 15.2239 20 15.5 20C15.7761 20 16 19.7761 16 19.5V15H17.4999C18.3292 15 19.0001 14.3261 19.0001 13.4986V7.58669C19.0001 6.80501 18.8074 5.93322 18.1687 5.30093C17.6162 4.7539 16.7306 4.10981 15.5453 4.00206C15.4054 3.98934 15.2666 4.03606 15.1628 4.13079ZM16 14V5.10344C16.6096 5.2854 17.1029 5.65297 17.4652 6.01158C17.8391 6.38172 18.0001 6.94355 18.0001 7.58669V13.4986C18.0001 13.7755 17.7752 14 17.4999 14H16ZM5.5 4C5.77614 4 6 4.22386 6 4.5V10.5C6 11.3284 6.67157 12 7.5 12H8H8.5C9.32843 12 10 11.3284 10 10.5V4.5C10 4.22386 10.2239 4 10.5 4C10.7761 4 11 4.22386 11 4.5V10.5C11 11.8807 9.88071 13 8.5 13V19.5C8.5 19.7761 8.27614 20 8 20C7.72386 20 7.5 19.7761 7.5 19.5V13C6.11929 13 5 11.8807 5 10.5V4.5C5 4.22386 5.22386 4 5.5 4ZM8 4C8.27614 4 8.5 4.22386 8.5 4.5V10.5C8.5 10.7761 8.27614 11 8 11C7.72386 11 7.5 10.7761 7.5 10.5V4.5C7.5 4.22386 7.72386 4 8 4Z" fill="#FC6300"/>
</g>
<defs>
<clipPath id="clip0_51_1098">
<rect width="24" height="24" fill="white"/>
</clipPath>
</defs>
</svg>
