<svg width="25" height="24" viewBox="0 0 25 24" fill="none" xmlns="http://www.w3.org/2000/svg">
<path fill-rule="evenodd" clip-rule="evenodd" d="M12.5 19.5C16.366 19.5 19.5 16.366 19.5 12.5C19.5 8.63401 16.366 5.5 12.5 5.5C8.63401 5.5 5.5 8.63401 5.5 12.5C5.5 16.366 8.63401 19.5 12.5 19.5ZM12.5 20.5C16.9183 20.5 20.5 16.9183 20.5 12.5C20.5 8.08172 16.9183 4.5 12.5 4.5C8.08172 4.5 4.5 8.08172 4.5 12.5C4.5 16.9183 8.08172 20.5 12.5 20.5Z" fill="#FC6300"/>
<path d="M12.4994 8.41429C12.3668 8.41429 12.2396 8.46696 12.1459 8.56072C12.0521 8.65448 11.9994 8.78165 11.9994 8.91424V13.2739L14.9492 15.2737C15.0599 15.344 15.1938 15.368 15.3221 15.3405C15.4503 15.313 15.5626 15.2362 15.6348 15.1267C15.7069 15.0172 15.7331 14.8837 15.7078 14.755C15.6824 14.6263 15.6075 14.5127 15.4991 14.4388L12.9993 12.7439V8.91424C12.9993 8.78165 12.9467 8.65448 12.8529 8.56072C12.7592 8.46696 12.632 8.41429 12.4994 8.41429Z" fill="#FC6300"/>
</svg>
