<svg width="24" height="24" viewBox="0 0 24 24" fill="none" xmlns="http://www.w3.org/2000/svg">
<g clip-path="url(#clip0_4813_24724)">
<path fill-rule="evenodd" clip-rule="evenodd" d="M14.7228 4.5L15.8021 6.92857L8.19805 6.92857L9.27741 4.5L14.7228 4.5ZM16.8965 6.92857L15.5046 3.79693C15.4244 3.61637 15.2453 3.5 15.0477 3.5L8.95247 3.5C8.75488 3.5 8.57582 3.61637 8.49557 3.79693L7.10374 6.92857H5.14283H4C3.72386 6.92857 3.5 7.15243 3.5 7.42857C3.5 7.70471 3.72386 7.92857 4 7.92857H4.72554L6.93662 20.0894C6.97985 20.3272 7.18691 20.5 7.42856 20.5H16.5714C16.8131 20.5 17.0201 20.3272 17.0633 20.0894L19.2744 7.92857H20C20.2761 7.92857 20.5 7.70471 20.5 7.42857C20.5 7.15243 20.2761 6.92857 20 6.92857H18.8571H16.8965ZM18.258 7.92857H16.5715H5.74193L7.84585 19.5H16.1541L18.258 7.92857ZM9.71436 10.3573C9.9905 10.3573 10.2144 10.5811 10.2144 10.8573V14.2859C10.2144 14.562 9.9905 14.7859 9.71436 14.7859C9.43821 14.7859 9.21436 14.562 9.21436 14.2859V10.8573C9.21436 10.5811 9.43821 10.3573 9.71436 10.3573ZM14.7856 10.8573C14.7856 10.5811 14.5618 10.3573 14.2856 10.3573C14.0095 10.3573 13.7856 10.5811 13.7856 10.8573V14.2859C13.7856 14.562 14.0095 14.7859 14.2856 14.7859C14.5618 14.7859 14.7856 14.562 14.7856 14.2859V10.8573Z" fill="#2D2D2D"/>
</g>
<defs>
<clipPath id="clip0_4813_24724">
<rect width="24" height="24" fill="white"/>
</clipPath>
</defs>
</svg>
