<svg width="32" height="32" viewBox="0 0 32 32" fill="none" xmlns="http://www.w3.org/2000/svg">
<g clip-path="url(#clip0_859_15329)">
<path fill-rule="evenodd" clip-rule="evenodd" d="M11.8959 6.42297L10.2764 10.0669H7.99991H6.66689C6.33552 10.0669 6.06689 10.3356 6.06689 10.6669C6.06689 10.9983 6.33552 11.2669 6.66689 11.2669H7.49916L10.0763 25.4409C10.1281 25.7262 10.3766 25.9336 10.6666 25.9336H21.3333C21.6232 25.9336 21.8717 25.7262 21.9236 25.4409L24.5007 11.2669H25.3336C25.6649 11.2669 25.9336 10.9983 25.9336 10.6669C25.9336 10.3356 25.6649 10.0669 25.3336 10.0669H23.9999H21.7232L20.1036 6.42297C20.0073 6.20629 19.7924 6.06665 19.5553 6.06665H12.4442C12.2071 6.06665 11.9922 6.20629 11.8959 6.42297ZM23.281 11.2669H8.71884L11.1673 24.7336H20.8325L23.281 11.2669ZM20.4098 10.0666L19.1654 7.26665L12.8341 7.26665L11.5897 10.0666L20.4098 10.0666ZM13.3334 14.0669C13.6648 14.0669 13.9334 14.3356 13.9334 14.6669V18.6669C13.9334 18.9983 13.6648 19.2669 13.3334 19.2669C13.002 19.2669 12.7334 18.9983 12.7334 18.6669V14.6669C12.7334 14.3356 13.002 14.0669 13.3334 14.0669ZM19.2669 14.6669C19.2669 14.3356 18.9983 14.0669 18.6669 14.0669C18.3355 14.0669 18.0669 14.3356 18.0669 14.6669V18.6669C18.0669 18.9983 18.3355 19.2669 18.6669 19.2669C18.9983 19.2669 19.2669 18.9983 19.2669 18.6669V14.6669Z" fill="#2D2D2D"/>
</g>
<defs>
<clipPath id="clip0_859_15329">
<rect width="32" height="32" fill="white"/>
</clipPath>
</defs>
</svg>
