<svg width="24" height="24" viewBox="0 0 24 24" fill="none" xmlns="http://www.w3.org/2000/svg">
<g clip-path="url(#clip0_4811_40860)">
<path fill-rule="evenodd" clip-rule="evenodd" d="M7.11304 10.6834C6.93817 10.8971 6.96967 11.2121 7.1834 11.387C7.39712 11.5618 7.71213 11.5303 7.88699 11.3166L11.5 6.9007V14.5C11.5 14.7761 11.7239 15 12 15C12.2762 15 12.5 14.7761 12.5 14.5V6.9007L16.113 11.3166C16.2879 11.5303 16.6029 11.5618 16.8166 11.387C17.0304 11.2121 17.0619 10.8971 16.887 10.6834L12.387 5.18338C12.292 5.06731 12.15 5 12 5C11.85 5 11.708 5.06731 11.613 5.18338L7.11304 10.6834ZM6.5 16C6.5 15.7239 6.27614 15.5 6 15.5C5.72386 15.5 5.5 15.7239 5.5 16V18.5C5.5 18.7761 5.72386 19 6 19H18C18.2761 19 18.5 18.7761 18.5 18.5V16C18.5 15.7239 18.2761 15.5 18 15.5C17.7239 15.5 17.5 15.7239 17.5 16V18H6.5V16Z" fill="#FC6300"/>
</g>
<defs>
<clipPath id="clip0_4811_40860">
<rect width="24" height="24" fill="white"/>
</clipPath>
</defs>
</svg>
