<svg width="32" height="32" viewBox="0 0 32 32" fill="none" xmlns="http://www.w3.org/2000/svg">
<g clip-path="url(#clip0_1433_148663)">
<path fill-rule="evenodd" clip-rule="evenodd" d="M18.8001 9.73352C18.8001 11.2799 17.5465 12.5335 16.0001 12.5335C14.4537 12.5335 13.2001 11.2799 13.2001 9.73352C13.2001 8.18712 14.4537 6.93352 16.0001 6.93352C17.5465 6.93352 18.8001 8.18712 18.8001 9.73352ZM20.0001 9.73352C20.0001 11.9427 18.2093 13.7335 16.0001 13.7335C13.791 13.7335 12.0001 11.9427 12.0001 9.73352C12.0001 7.52438 13.791 5.73352 16.0001 5.73352C18.2093 5.73352 20.0001 7.52438 20.0001 9.73352ZM6.6667 25.8668C6.64091 25.8668 6.62217 25.8603 6.61021 25.8539C7.20481 21.1989 11.1831 17.6001 16 17.6001C20.817 17.6001 24.7953 21.1989 25.3899 25.8539C25.3779 25.8603 25.3592 25.8668 25.3334 25.8668H6.6667ZM16 16.4001C10.5596 16.4001 6.07052 20.4731 5.41556 25.7361C5.32462 26.4669 5.93032 27.0668 6.6667 27.0668H25.3334C26.0697 27.0668 26.6754 26.4669 26.5845 25.7361C25.9296 20.4731 21.4404 16.4001 16 16.4001Z" fill="#FC6300"/>
</g>
<defs>
<clipPath id="clip0_1433_148663">
<rect width="32" height="32" fill="white"/>
</clipPath>
</defs>
</svg>
