<svg width="41" height="40" viewBox="0 0 41 40" fill="none" xmlns="http://www.w3.org/2000/svg">
<g clip-path="url(#clip0_6329_135600)">
<rect x="0.75" width="40" height="40" rx="20" fill="#FFB17E"/>
<g clip-path="url(#clip1_6329_135600)">
<mask id="path-2-inside-1_6329_135600" fill="white">
<path fill-rule="evenodd" clip-rule="evenodd" d="M20.9919 20C23.7534 20 25.9919 17.7614 25.9919 15C25.9919 12.2386 23.7534 10 20.9919 10C18.2305 10 15.9919 12.2386 15.9919 15C15.9919 17.7614 18.2305 20 20.9919 20ZM20.9918 23.3333C14.127 23.3333 8.47399 28.521 7.73926 35.19C11.2367 38.1885 15.7818 40 20.75 40C25.927 40 30.6446 38.033 34.1962 34.8055C33.2909 28.3227 27.724 23.3333 20.9918 23.3333Z"/>
</mask>
<path fill-rule="evenodd" clip-rule="evenodd" d="M20.9919 20C23.7534 20 25.9919 17.7614 25.9919 15C25.9919 12.2386 23.7534 10 20.9919 10C18.2305 10 15.9919 12.2386 15.9919 15C15.9919 17.7614 18.2305 20 20.9919 20ZM20.9918 23.3333C14.127 23.3333 8.47399 28.521 7.73926 35.19C11.2367 38.1885 15.7818 40 20.75 40C25.927 40 30.6446 38.033 34.1962 34.8055C33.2909 28.3227 27.724 23.3333 20.9918 23.3333Z" fill="white"/>
<path d="M7.73926 35.19L6.24828 35.0257C6.194 35.5184 6.38663 36.0061 6.76295 36.3288L7.73926 35.19ZM34.1962 34.8055L35.205 35.9156C35.5719 35.5822 35.7504 35.0891 35.6818 34.5981L34.1962 34.8055ZM24.4919 15C24.4919 16.933 22.9249 18.5 20.9919 18.5V21.5C24.5818 21.5 27.4919 18.5899 27.4919 15H24.4919ZM20.9919 11.5C22.9249 11.5 24.4919 13.067 24.4919 15H27.4919C27.4919 11.4101 24.5818 8.5 20.9919 8.5V11.5ZM17.4919 15C17.4919 13.067 19.0589 11.5 20.9919 11.5V8.5C17.4021 8.5 14.4919 11.4101 14.4919 15H17.4919ZM20.9919 18.5C19.0589 18.5 17.4919 16.933 17.4919 15H14.4919C14.4919 18.5899 17.4021 21.5 20.9919 21.5V18.5ZM9.23024 35.3543C9.88214 29.4372 14.9003 24.8333 20.9918 24.8333V21.8333C13.3537 21.8333 7.06584 27.6049 6.24828 35.0257L9.23024 35.3543ZM20.75 38.5C16.1533 38.5 11.9515 36.8255 8.71557 34.0512L6.76295 36.3288C10.522 39.5516 15.4104 41.5 20.75 41.5V38.5ZM33.1874 33.6954C29.9011 36.6818 25.5396 38.5 20.75 38.5V41.5C26.3144 41.5 31.3882 39.3841 35.205 35.9156L33.1874 33.6954ZM20.9918 24.8333C26.9653 24.8333 31.9073 29.2609 32.7107 35.013L35.6818 34.5981C34.6744 27.3845 28.4826 21.8333 20.9918 21.8333V24.8333Z" fill="white" mask="url(#path-2-inside-1_6329_135600)"/>
</g>
</g>
<defs>
<clipPath id="clip0_6329_135600">
<rect x="0.75" width="40" height="40" rx="20" fill="white"/>
</clipPath>
<clipPath id="clip1_6329_135600">
<rect width="40" height="40" fill="white" transform="translate(0.75)"/>
</clipPath>
</defs>
</svg>
