<svg width="25" height="24" viewBox="0 0 25 24" fill="none" xmlns="http://www.w3.org/2000/svg">
<g clip-path="url(#clip0_8327_4211)">
<path fill-rule="evenodd" clip-rule="evenodd" d="M12.4999 8.92517C13.6045 8.92517 14.4999 8.02974 14.4999 6.92517C14.4999 5.8206 13.6045 4.92517 12.4999 4.92517C11.3953 4.92517 10.4999 5.8206 10.4999 6.92517C10.4999 8.02974 11.3953 8.92517 12.4999 8.92517ZM12.4999 9.92517C14.1568 9.92517 15.4999 8.58203 15.4999 6.92517C15.4999 5.26832 14.1568 3.92517 12.4999 3.92517C10.843 3.92517 9.4999 5.26832 9.4999 6.92517C9.4999 8.58203 10.843 9.92517 12.4999 9.92517Z" fill="#FC6300"/>
<path fill-rule="evenodd" clip-rule="evenodd" d="M5.5706 18.9251H19.4291C18.9445 15.5332 16.026 12.9251 12.4998 12.9251C8.97369 12.9251 6.0552 15.5332 5.5706 18.9251ZM4.56149 18.9271C5.0527 14.9799 8.41954 11.9251 12.4998 11.9251C16.5801 11.9251 19.947 14.9799 20.4382 18.9271C20.5064 19.4752 20.0521 19.9251 19.4998 19.9251H5.49984C4.94756 19.9251 4.49329 19.4752 4.56149 18.9271Z" fill="#FC6300"/>
</g>
<defs>
<clipPath id="clip0_8327_4211">
<rect width="24" height="24" fill="white" transform="translate(0.5)"/>
</clipPath>
</defs>
</svg>
